<svg width="74" height="71" viewBox="0 0 74 71" fill="none" xmlns="http://www.w3.org/2000/svg">
<rect width="73" height="71" rx="35.5" transform="matrix(1 0 0 -1 0.167969 71)" fill="#F35369" fill-opacity="0.08"/>
<path d="M50.5008 15.6688C49.4113 15.9787 48.4627 16.6925 47.8146 17.6881C47.3074 18.4676 47.082 19.2754 47.082 20.2709C47.082 21.6797 47.4953 22.6847 48.4815 23.6709C49.4676 24.6571 50.4726 25.0703 51.8814 25.0703C55.5068 25.0703 57.7703 21.3228 56.1267 18.0356C55.5819 16.9367 54.2107 15.8754 52.9991 15.5936C52.3604 15.4434 51.1488 15.4809 50.5008 15.6688Z" fill="#363A60"/>
<path d="M25.152 19.1993C22.973 19.5374 21.1321 20.3827 19.7233 21.6788C18.3426 22.9562 17.4692 24.5622 16.9056 26.8539C16.7178 27.6335 16.7084 27.8871 16.6708 36.7157C16.6521 43.1117 16.6708 46.0327 16.746 46.6526C16.9714 48.4465 17.657 50.3249 18.5681 51.5929C19.0471 52.2597 20.0614 53.2647 20.7189 53.7061C21.8929 54.5044 23.715 55.1619 25.4243 55.3967C25.9033 55.4624 29.1436 55.5 34.8447 55.5C44.5092 55.5 44.6313 55.4906 46.5003 54.8801C49.9754 53.7437 52.0793 51.2172 52.8682 47.2349C53.0091 46.5305 53.0373 45.4222 53.0654 37.514L53.103 28.5821L51.8539 28.6196C50.3511 28.6666 49.3931 28.4788 48.1252 27.8777C45.0821 26.4501 43.2037 23.2098 43.4761 19.8474L43.5418 19.0584L34.7226 19.0678C28.1387 19.0772 25.7155 19.1054 25.152 19.1993ZM44.4528 31.3809C45.27 31.8036 45.5423 32.6865 45.0915 33.4942C44.7628 34.0859 39.2026 41.1957 38.9209 41.3836C38.7518 41.4963 38.4982 41.5526 38.1131 41.5526H37.5402L34.5723 39.3079C32.9381 38.0775 31.5574 37.1008 31.5011 37.1289C31.4541 37.1665 30.2519 38.6786 28.8243 40.5101C26.5326 43.4593 26.2039 43.8443 25.847 43.9852C25.1144 44.2764 24.2879 43.9664 23.9779 43.262C23.7713 42.8206 23.7431 42.4825 23.884 42.1256C24.0437 41.7029 30.1768 33.8041 30.4867 33.6069C30.853 33.3909 31.4917 33.3721 31.8767 33.5693C32.027 33.6538 33.3889 34.687 34.8916 35.8704C36.4038 37.0632 37.6717 38.0306 37.7093 38.0306C37.7468 38.0306 38.9021 36.5654 40.2921 34.7715C42.396 32.0572 42.8656 31.4936 43.1849 31.3528C43.6827 31.1274 43.9551 31.1274 44.4528 31.3809Z" fill="#F35369"/>
</svg>
