<svg width="38" height="38" viewBox="0 0 38 38" fill="none" xmlns="http://www.w3.org/2000/svg">
<rect opacity="0.1" x="0.203125" y="0.109375" width="37.6495" height="37.4458" rx="18.416" fill="#363A60"/>
<path d="M18.719 16.0197L22.4581 14.5342L13.2 10.851L10.0078 12.1205C9.84674 12.1842 9.69548 12.2702 9.55847 12.3758L18.719 16.021V16.0197ZM8.88695 13.4329C8.85816 13.5632 8.84367 13.6961 8.84375 13.8295V23.2167C8.84369 23.5848 8.95456 23.9445 9.16205 24.2494C9.36954 24.5542 9.66413 24.7902 10.0078 24.9269L17.1143 27.7544C17.4352 27.8821 17.7661 27.9692 18.1018 28.0171V17.0977L8.88695 13.4317V13.4329ZM19.3362 28.0183C19.6747 27.9699 20.0062 27.8818 20.3238 27.7556L27.4303 24.9282C27.7741 24.7914 28.0688 24.5552 28.2764 24.2501C28.4839 23.945 28.5946 23.585 28.5943 23.2167V13.8295C28.5943 13.6944 28.5795 13.5606 28.5511 13.4317L19.3362 17.0977V28.0171V28.0183ZM27.8796 12.3771L24.1196 13.8737L14.8615 10.1905L17.1143 9.29178C18.1444 8.88191 19.2936 8.88191 20.3238 9.29178L27.4303 12.1192C27.5913 12.183 27.7426 12.269 27.8796 12.3746V12.3771Z" fill="#717E95"/>
</svg>
