<svg width="50" height="50" viewBox="0 0 50 50" fill="none" xmlns="http://www.w3.org/2000/svg">
<circle cx="25" cy="25" r="24.5" stroke="#F35369" stroke-dasharray="3 4"/>
<path d="M31 23.5H26.5V19C26.5 18.4688 26.0312 18 25.5 18H24.5C23.9375 18 23.5 18.4688 23.5 19V23.5H19C18.4375 23.5 18 23.9688 18 24.5V25.5C18 26.0625 18.4375 26.5 19 26.5H23.5V31C23.5 31.5625 23.9375 32 24.5 32H25.5C26.0312 32 26.5 31.5625 26.5 31V26.5H31C31.5312 26.5 32 26.0625 32 25.5V24.5C32 23.9688 31.5312 23.5 31 23.5Z" fill="#363A60"/>
</svg>
