<svg width="16" height="10" viewBox="0 0 16 10" fill="none" xmlns="http://www.w3.org/2000/svg">
<path d="M14.75 0.5H1.25C0.828125 0.5 0.5 0.851562 0.5 1.25V8.75C0.5 9.17188 0.828125 9.5 1.25 9.5H14.75C15.1484 9.5 15.5 9.17188 15.5 8.75V1.25C15.5 0.851562 15.1484 0.5 14.75 0.5ZM1.625 8.375V6.875C2.44531 6.875 3.125 7.55469 3.125 8.375H1.625ZM1.625 3.125V1.625H3.125C3.125 2.46875 2.44531 3.125 1.625 3.125ZM8 7.25C6.94531 7.25 6.125 6.26562 6.125 5C6.125 3.75781 6.94531 2.75 8 2.75C9.03125 2.75 9.875 3.75781 9.875 5C9.875 6.26562 9.03125 7.25 8 7.25ZM14.375 8.375H12.875C12.875 7.55469 13.5312 6.875 14.375 6.875V8.375ZM14.375 3.125C13.5312 3.125 12.875 2.46875 12.875 1.625H14.375V3.125Z" fill="#F68F57"/>
</svg>
