<svg width="15" height="16" viewBox="0 0 15 16" fill="none" xmlns="http://www.w3.org/2000/svg">
<path d="M5.31683 3.5C5.31683 2.39687 6.21098 1.5 7.31075 1.5C8.41053 1.5 9.30468 2.39687 9.30468 3.5V5H5.31683V3.5ZM3.82139 5H1.82747C1.00186 5 0.332031 5.67188 0.332031 6.5V13C0.332031 14.6562 1.6717 16 3.32291 16H11.2986C12.9498 16 14.2895 14.6562 14.2895 13V6.5C14.2895 5.67188 13.6196 5 12.794 5H10.8001V3.5C10.8001 1.56562 9.23925 0 7.31075 0C5.38226 0 3.82139 1.56562 3.82139 3.5V5ZM4.56911 8C4.15475 8 3.82139 7.66563 3.82139 7.25C3.82139 6.83437 4.15475 6.5 4.56911 6.5C4.98348 6.5 5.31683 6.83437 5.31683 7.25C5.31683 7.66563 4.98348 8 4.56911 8ZM10.8001 7.25C10.8001 7.66563 10.4668 8 10.0524 8C9.63803 8 9.30468 7.66563 9.30468 7.25C9.30468 6.83437 9.63803 6.5 10.0524 6.5C10.4668 6.5 10.8001 6.83437 10.8001 7.25Z" fill="#00D27B"/>
</svg>
