<svg width="36" height="39" viewBox="0 0 36 39" fill="none" xmlns="http://www.w3.org/2000/svg">
<path d="M15.7952 1.58243C16.3718 1.1405 17.0673 0.902344 17.7813 0.902344C18.4952 0.902344 19.1907 1.1405 19.7673 1.58243L34.0489 12.5227C35.9291 13.961 34.9611 17.0819 32.6364 17.0879H2.92425C0.599476 17.0819 -0.366616 13.961 1.51168 12.5227L15.7933 1.58243H15.7952ZM19.7058 9.51093C19.7058 8.97519 19.503 8.4614 19.1421 8.08257C18.7812 7.70375 18.2917 7.49093 17.7813 7.49093C17.2709 7.49093 16.7814 7.70375 16.4205 8.08257C16.0595 8.4614 15.8568 8.97519 15.8568 9.51093C15.8568 10.0467 16.0595 10.5605 16.4205 10.9393C16.7814 11.3181 17.2709 11.5309 17.7813 11.5309C18.2917 11.5309 18.7812 11.3181 19.1421 10.9393C19.503 10.5605 19.7058 10.0467 19.7058 9.51093Z" fill="#F35369"/>
<path d="M30.7716 31.2266H4.79103C3.64261 31.2266 2.54124 31.7054 1.72919 32.5578C0.917142 33.4101 0.460938 34.5661 0.460938 35.7716V36.7816C0.460938 37.6199 1.10756 38.2966 1.9043 38.2966H33.6583C34.0411 38.2966 34.4082 38.1369 34.6789 37.8528C34.9496 37.5687 35.1016 37.1834 35.1016 36.7816V35.7716C35.1016 34.5661 34.6454 33.4101 33.8334 32.5578C33.0213 31.7054 31.92 31.2266 30.7716 31.2266Z" fill="#F35369"/>
<path d="M24.2669 28.9555H20.418V18.8555H24.2669V28.9555Z" fill="#363A60"/>
<path d="M30.9154 28.9555H27.0664V18.8555H30.9154V28.9555Z" fill="#363A60"/>
<path d="M17.1426 28.9555H12.8125V18.8555H17.1426V28.9555Z" fill="#363A60"/>
<path d="M9.54103 28.9555H5.21094V18.8555H9.54103V28.9555Z" fill="#363A60"/>
</svg>
