<svg width="15" height="17" viewBox="0 0 15 17" fill="none" xmlns="http://www.w3.org/2000/svg">
<path d="M13 0.699219H2C1.1875 0.699219 0.5 1.41797 0.5 2.19922V15.1992C0.5 16.0117 1.1875 16.6992 2 16.6992H13C13.7812 16.6992 14.5 16.0117 14.5 15.1992V2.19922C14.5 1.41797 13.7812 0.699219 13 0.699219ZM4.5 14.3242C4.5 14.5117 4.28125 14.6992 4.09375 14.6992H2.875C2.6875 14.6992 2.5 14.5117 2.5 14.3242V13.1055C2.5 12.918 2.6875 12.6992 2.875 12.6992H4.09375C4.28125 12.6992 4.5 12.918 4.5 13.1055V14.3242ZM4.5 10.3242C4.5 10.5117 4.28125 10.6992 4.09375 10.6992H2.875C2.6875 10.6992 2.5 10.5117 2.5 10.3242V9.10547C2.5 8.91797 2.6875 8.69922 2.875 8.69922H4.09375C4.28125 8.69922 4.5 8.91797 4.5 9.10547V10.3242ZM8.5 14.3242C8.5 14.5117 8.28125 14.6992 8.09375 14.6992H6.875C6.6875 14.6992 6.5 14.5117 6.5 14.3242V13.1055C6.5 12.918 6.6875 12.6992 6.875 12.6992H8.09375C8.28125 12.6992 8.5 12.918 8.5 13.1055V14.3242ZM8.5 10.3242C8.5 10.5117 8.28125 10.6992 8.09375 10.6992H6.875C6.6875 10.6992 6.5 10.5117 6.5 10.3242V9.10547C6.5 8.91797 6.6875 8.69922 6.875 8.69922H8.09375C8.28125 8.69922 8.5 8.91797 8.5 9.10547V10.3242ZM12.5 14.3242C12.5 14.5117 12.2812 14.6992 12.0938 14.6992H10.875C10.6875 14.6992 10.5 14.5117 10.5 14.3242V9.10547C10.5 8.91797 10.6875 8.69922 10.875 8.69922H12.0938C12.2812 8.69922 12.5 8.91797 12.5 9.10547V14.3242ZM12.5 6.32422C12.5 6.51172 12.2812 6.69922 12.0938 6.69922H2.875C2.6875 6.69922 2.5 6.51172 2.5 6.32422V3.10547C2.5 2.91797 2.6875 2.69922 2.875 2.69922H12.0938C12.2812 2.69922 12.5 2.91797 12.5 3.10547V6.32422Z" fill="#F35369"/>
</svg>
