<svg width="27" height="23" viewBox="0 0 27 23" fill="none" xmlns="http://www.w3.org/2000/svg">
<path d="M10.2806 20.3816C10.2806 20.9188 10.0844 21.3837 9.69179 21.7762C9.29923 22.1688 8.83436 22.3651 8.29717 22.3651C7.75998 22.3651 7.2951 22.1688 6.90254 21.7762C6.50998 21.3837 6.31369 20.9188 6.31369 20.3816C6.31369 19.8444 6.50998 19.3795 6.90254 18.987C7.2951 18.5944 7.75998 18.3981 8.29717 18.3981C8.83436 18.3981 9.29923 18.5944 9.69179 18.987C10.0844 19.3795 10.2806 19.8444 10.2806 20.3816ZM24.1649 20.3816C24.1649 20.9188 23.9687 21.3837 23.5761 21.7762C23.1835 22.1688 22.7187 22.3651 22.1815 22.3651C21.6443 22.3651 21.1794 22.1688 20.7868 21.7762C20.3943 21.3837 20.198 20.9188 20.198 20.3816C20.198 19.8444 20.3943 19.3795 20.7868 18.987C21.1794 18.5944 21.6443 18.3981 22.1815 18.3981C22.7187 18.3981 23.1835 18.5944 23.5761 18.987C23.9687 19.3795 24.1649 19.8444 24.1649 20.3816ZM26.1484 3.52208V11.456C26.1484 11.7039 26.0632 11.9234 25.8927 12.1145C25.7223 12.3057 25.5131 12.4167 25.2651 12.4477L9.08745 14.3382C9.22175 14.958 9.2889 15.3196 9.2889 15.4229C9.2889 15.5882 9.16493 15.9188 8.917 16.4146H23.1732C23.4418 16.4146 23.6742 16.5128 23.8705 16.7091C24.0668 16.9053 24.1649 17.1378 24.1649 17.4064C24.1649 17.675 24.0668 17.9074 23.8705 18.1037C23.6742 18.3 23.4418 18.3981 23.1732 18.3981H7.30543C7.03683 18.3981 6.8044 18.3 6.60812 18.1037C6.41183 17.9074 6.31369 17.675 6.31369 17.4064C6.31369 17.2927 6.35502 17.13 6.43766 16.9183C6.52031 16.7065 6.60295 16.5205 6.6856 16.3604C6.76824 16.2003 6.87929 15.9937 7.01876 15.7406C7.15822 15.4875 7.23828 15.3351 7.25894 15.2834L4.51617 2.53035H1.35502C1.08642 2.53035 0.853984 2.43221 0.657703 2.23592C0.461422 2.03964 0.363281 1.80721 0.363281 1.53861C0.363281 1.27002 0.461422 1.03758 0.657703 0.841296C0.853984 0.645015 1.08642 0.546875 1.35502 0.546875H5.32196C5.48725 0.546875 5.63446 0.580449 5.76359 0.647598C5.89272 0.714747 5.99345 0.794809 6.06576 0.887784C6.13807 0.980759 6.20522 1.10731 6.26721 1.26743C6.32919 1.42756 6.37051 1.56185 6.39117 1.67033C6.41183 1.7788 6.44024 1.93117 6.4764 2.12745C6.51256 2.32373 6.5358 2.45803 6.54613 2.53035H25.1567C25.4253 2.53035 25.6577 2.62849 25.854 2.82477C26.0503 3.02105 26.1484 3.25349 26.1484 3.52208Z" fill="#F35369"/>
</svg>
