<svg width="39" height="32" viewBox="0 0 39 32" fill="none" xmlns="http://www.w3.org/2000/svg">
<path d="M38.7373 6.40156C38.6379 6.20156 38.4391 6.00156 38.2403 5.90156C37.942 5.70156 37.5444 5.60156 37.1467 5.60156H2.25383C1.16032 5.60156 0.265625 6.50156 0.265625 7.60156V29.6016C0.265625 30.7016 1.16032 31.6016 2.25383 31.6016H37.0473C37.445 31.6016 37.8426 31.5016 38.1408 31.3016C38.3397 31.2016 38.5385 31.0016 38.6379 30.8016C38.8367 30.5016 38.9361 30.1016 38.9361 29.7016V7.70156C39.0355 7.10156 38.9361 6.70156 38.7373 6.40156ZM35.5562 23.5016C33.0709 23.5016 31.0827 25.5016 31.0827 28.0016H8.21843C8.21843 25.5016 6.23023 23.5016 3.74498 23.5016V13.5016C6.23023 13.5016 8.21843 11.5016 8.21843 9.00156H31.0827C31.0827 11.5016 33.0709 13.5016 35.5562 13.5016V23.5016Z" fill="#F35369"/>
<path d="M19.4502 15.7C19.9472 15.7 20.4443 15.9 20.6431 16.4C20.9413 17 21.6372 17.3 22.2337 17C22.8301 16.7 23.1283 16 22.8301 15.4C22.4325 14.6 21.836 13.9 21.0407 13.6V13.1C21.0407 12.4 20.4443 11.9 19.8478 11.9C19.1519 11.9 18.6549 12.5 18.6549 13.1V13.3C17.5614 13.6 16.6667 14.5 16.4679 15.7C16.1696 17.1 16.8655 18.4 18.0584 19L20.0466 20C20.4443 20.2 20.3449 20.5 20.3449 20.6C20.3449 20.8 20.2454 21 19.8478 21.1C19.3508 21.1 18.8537 20.9 18.6549 20.4C18.3567 19.8 17.6608 19.5 17.0643 19.8C16.4679 20.1 16.1696 20.8 16.4679 21.4C16.8655 22.4 17.7602 23.1 18.6549 23.4V23.6C18.6549 24.3 19.2513 24.8 19.8478 24.8C20.5437 24.8 21.0407 24.2 21.0407 23.6V23.3C21.9354 22.9 22.6313 22.1 22.8301 21C23.0289 19.6 22.4325 18.4 21.2395 17.7L19.2513 16.7C18.8537 16.5 18.9531 16.2 18.9531 16C18.9531 16 19.0525 15.7 19.4502 15.7ZM9.21094 16.5C8.11742 16.5 7.22273 17.4 7.22273 18.5C7.22273 19.6 8.11742 20.5 9.21094 20.5C10.3044 20.5 11.1991 19.6 11.1991 18.5C11.1991 17.4 10.3044 16.5 9.21094 16.5ZM30.087 16.5C28.9935 16.5 28.0988 17.4 28.0988 18.5C28.0988 19.6 28.9935 20.5 30.087 20.5C31.1806 20.5 32.0752 19.6 32.0752 18.5C32.0752 17.4 31.1806 16.5 30.087 16.5ZM33.6658 0H5.83099C5.03571 0 4.33984 0.7 4.33984 1.5C4.33984 2.3 5.03571 3 5.83099 3H33.6658C34.4611 3 35.157 2.3 35.157 1.5C35.157 0.7 34.4611 0 33.6658 0Z" fill="#363A60"/>
</svg>
