<svg width="23" height="23" viewBox="0 0 23 23" fill="none"
  xmlns="http://www.w3.org/2000/svg">
  <path d="M2.76302 22.9281C1.58607 22.6721 0.579815 21.7871 0.202471 20.6775C0.0093074 20.1025 -0.00866135 19.833 0.0093074 17.6094C0.0272762 15.5969 0.0317683 15.507 0.130596 15.1836C0.498956 13.9662 1.42884 13.0588 2.62376 12.7578C2.95618 12.6725 3.12689 12.668 5.18431 12.668C7.62806 12.668 7.67747 12.6725 8.29739 12.96C9.1015 13.3328 9.672 13.9033 10.0404 14.7029C10.3279 15.3318 10.3368 15.4441 10.3234 17.9688L10.3099 20.2373L10.1706 20.6326C9.84271 21.54 9.2138 22.2453 8.37825 22.6451C7.68196 22.9775 7.73138 22.973 5.27864 22.9865C3.44583 22.991 3.02357 22.982 2.76302 22.9281Z" fill="#363A60"/>
  <path d="M15.516 22.9506C15.3902 22.9281 15.1387 22.8607 14.9545 22.7934C13.8629 22.398 13.0453 21.4996 12.7578 20.3721C12.6725 20.0441 12.668 19.8689 12.668 17.8475C12.668 15.3768 12.677 15.3049 13.0049 14.6221C13.4541 13.6877 14.2807 13.0049 15.26 12.7533C15.5744 12.6725 15.7721 12.668 17.8115 12.668C19.8734 12.668 20.0441 12.6725 20.3766 12.7578C21.567 13.0588 22.5059 13.9707 22.8697 15.1836C22.9686 15.507 22.973 15.5969 22.991 17.6094C23.009 19.842 22.991 20.0936 22.7934 20.6775C22.6271 21.1672 22.3531 21.5895 21.9488 21.9893C21.4143 22.5148 20.9156 22.7844 20.2059 22.9281C19.9184 22.9865 19.5141 23 17.8025 22.9955C16.6705 22.991 15.6418 22.973 15.516 22.9506Z" fill="#363A60"/>
  <path d="M2.7181 10.265C1.49173 9.99095 0.503453 9.05658 0.12611 7.80775C0.0317738 7.4933 0.0272816 7.39447 0.00931286 5.35951C-0.0041637 3.53568 0.00482067 3.1808 0.0677113 2.84388C0.33275 1.43334 1.40189 0.355211 2.81244 0.0677113C3.1224 0.00482067 3.4683 -0.0041637 5.32806 0.00931286C7.72689 0.0272816 7.68646 0.0227894 8.37826 0.355211C9.21381 0.755016 9.84271 1.46029 10.1706 2.36771L10.3099 2.76302L10.3234 5.03158C10.3369 7.61908 10.3324 7.68197 9.99545 8.37826C9.5642 9.26771 8.85443 9.88314 7.88412 10.2021C7.57416 10.3054 7.54271 10.3099 5.27865 10.3189C3.49076 10.3234 2.92923 10.3144 2.7181 10.265Z" fill="#363A60"/>
  <path d="M15.2734 10.2425C14.2223 9.95951 13.4137 9.28119 12.9645 8.30189C12.677 7.68197 12.668 7.56967 12.668 5.15287C12.668 3.12689 12.6725 2.95619 12.7578 2.62377C13.0498 1.46478 13.8809 0.579821 15.0623 0.166539L15.4756 0.0227894L17.6498 0.00931286C19.5186 -0.0041637 19.8734 0.00482067 20.1879 0.0677113C20.9111 0.211461 21.4098 0.480993 21.9488 1.01107C22.3531 1.41088 22.6271 1.83314 22.7934 2.32279C22.991 2.90677 23.009 3.15834 22.991 5.39095C22.973 7.40345 22.9686 7.4933 22.8697 7.81674C22.5328 8.9308 21.7287 9.77533 20.6326 10.1706L20.2373 10.3099L17.9238 10.3189C15.7406 10.3279 15.5924 10.3234 15.2734 10.2425Z" fill="#F35369"/>
</svg>
