<svg width="16" height="15" viewBox="0 0 16 15" fill="none" xmlns="http://www.w3.org/2000/svg">
<path d="M9.51209 12.2C12.1195 12.2 13.4236 12.2 14.2332 11.3796C15.0436 10.5599 15.0436 9.2397 15.0436 6.6C15.0436 3.9603 15.0436 2.6401 14.2332 1.8204C13.4236 1 12.1195 1 9.51209 1H6.74634C4.13893 1 2.83488 1 2.02521 1.8204C1.21484 2.6401 1.21484 3.9603 1.21484 6.6C1.21484 9.2397 1.21484 10.5599 2.02521 11.3796C2.47672 11.8374 3.08172 12.0397 3.98059 12.1286" stroke="#C0C0C0" stroke-linecap="round" stroke-linejoin="round"/>
<path d="M9.52209 12.1984C8.66748 12.1984 7.72574 12.5484 6.86628 12.9999C5.48479 13.7258 4.79404 14.0891 4.45386 13.8574C4.11367 13.6264 4.17797 12.9089 4.30727 11.4746L4.33631 11.1484" stroke="#C0C0C0" stroke-linecap="round"/>
</svg>
