<svg width="35" height="34" viewBox="0 0 35 34" fill="none" xmlns="http://www.w3.org/2000/svg">
<path d="M27.4409 14.7H33.7038V9C33.7038 7.9 32.8091 7 31.7155 7H7.36009C6.56481 7 5.86894 6.3 5.86894 5.5C5.86894 4.7 6.56481 4 7.36009 4H30.7214V2C30.7214 0.9 29.8268 0 28.7332 0H4.87484C2.68782 0 0.898438 1.8 0.898438 4V30C0.898438 32.2 2.68782 34 4.87484 34H31.7155C32.8091 34 33.7038 33.1 33.7038 32V27H27.4409C24.061 27 21.2775 24.2 21.2775 20.8C21.2775 17.4 24.061 14.7 27.4409 14.7Z" fill="#F35369"/>
<path d="M34.1998 17.1992H27.4399C25.4517 17.1992 23.7617 18.7992 23.7617 20.8992C23.7617 22.8992 25.3523 24.5992 27.4399 24.5992H34.1998C34.498 24.5992 34.6968 24.3992 34.6968 24.0992V17.7992C34.6968 17.3992 34.498 17.1992 34.1998 17.1992ZM28.2352 22.2992C27.4399 22.2992 26.744 21.5992 26.744 20.7992C26.744 19.9992 27.4399 19.2992 28.2352 19.2992C29.0305 19.2992 29.7263 19.9992 29.7263 20.7992C29.7263 21.5992 29.0305 22.2992 28.2352 22.2992Z" fill="#363A60"/>
</svg>
