<svg width="32" height="32" viewBox="0 0 32 32" fill="none" xmlns="http://www.w3.org/2000/svg">
<g clip-path="url(#clip0_895_41285)">
<path d="M15 16C15.8333 16 16.5417 15.7083 17.125 15.125C17.7083 14.5417 18 13.8333 18 13C18 12.1667 17.7083 11.4583 17.125 10.875C16.5417 10.2917 15.8333 10 15 10C14.1667 10 13.4583 10.2917 12.875 10.875C12.2917 11.4583 12 12.1667 12 13C12 13.8333 12.2917 14.5417 12.875 15.125C13.4583 15.7083 14.1667 16 15 16ZM7 23C6.45 23 5.97933 22.8043 5.588 22.413C5.196 22.021 5 21.55 5 21V9C5 8.45 5.196 7.97933 5.588 7.588C5.97933 7.196 6.45 7 7 7H23C23.55 7 24.021 7.196 24.413 7.588C24.8043 7.97933 25 8.45 25 9V21C25 21.55 24.8043 22.021 24.413 22.413C24.021 22.8043 23.55 23 23 23H7ZM8.75 21H21.25C20.5 20.0667 19.5917 19.3333 18.525 18.8C17.4583 18.2667 16.2833 18 15 18C13.7167 18 12.5417 18.2667 11.475 18.8C10.4083 19.3333 9.5 20.0667 8.75 21Z" fill="#F35369"/>
<path d="M7.287 5.712C7.479 5.904 7.71667 6 8 6H22C22.2833 6 22.5207 5.904 22.712 5.712C22.904 5.52067 23 5.28333 23 5C23 4.71667 22.904 4.479 22.712 4.287C22.5207 4.09567 22.2833 4 22 4H8C7.71667 4 7.479 4.09567 7.287 4.287C7.09567 4.479 7 4.71667 7 5C7 5.28333 7.09567 5.52067 7.287 5.712Z" fill="#363A60"/>
<path d="M7.287 25.712C7.479 25.904 7.71667 26 8 26H22C22.2833 26 22.5207 25.904 22.712 25.712C22.904 25.5207 23 25.2833 23 25C23 24.7167 22.904 24.4793 22.712 24.288C22.5207 24.096 22.2833 24 22 24H8C7.71667 24 7.479 24.096 7.287 24.288C7.09567 24.4793 7 24.7167 7 25C7 25.2833 7.09567 25.5207 7.287 25.712Z" fill="#363A60"/>
</g>
<defs>
<clipPath id="clip0_895_41285">
<rect width="23" height="23" fill="white" transform="matrix(1 0 0 -1 4 27)"/>
</clipPath>
</defs>
</svg>
