<svg width="74" height="71" viewBox="0 0 74 71" fill="none" xmlns="http://www.w3.org/2000/svg">
<rect width="73" height="71" rx="35.5" transform="matrix(1 0 0 -1 0.5 71)" fill="#F35369" fill-opacity="0.08"/>
<path d="M39.447 20.6708C38.8404 20.7413 37.8295 21.0124 37.2229 21.2672C34.5889 22.3842 32.7473 24.6343 32.1353 27.4972C31.9549 28.3214 31.9549 29.9263 32.1353 30.7505C32.8894 34.2749 35.5234 36.8612 38.9989 37.5065C39.8132 37.6583 41.3597 37.6474 42.1411 37.4793C43.2723 37.2408 44.3215 36.7962 45.2833 36.1563C45.9281 35.7226 47.0429 34.6165 47.4801 33.9767C49.5021 31.0053 49.5075 27.3074 47.4911 24.2982C47.032 23.6096 45.95 22.536 45.256 22.0805C43.4909 20.9148 41.5236 20.4376 39.447 20.6708ZM40.8187 23.756C41.0318 23.8861 41.2067 24.2385 41.2121 24.5259C41.2121 24.6886 41.234 24.7319 41.3159 24.7319C41.4908 24.7319 42.2887 25.1603 42.4362 25.3338C42.939 25.9248 42.3597 26.8249 41.6056 26.6188C41.4963 26.5863 41.3433 26.5212 41.2668 26.467C41.0263 26.3044 40.7258 26.2339 40.3487 26.2664C39.9771 26.2935 39.8022 26.3857 39.6055 26.6459C39.4579 26.8411 39.4525 27.2803 39.5946 27.4322C39.7366 27.5894 40.4197 27.9256 41.1903 28.2238C41.9498 28.5166 42.2613 28.7009 42.5892 29.0642C43.4581 30.0185 43.4362 31.4771 42.551 32.5615C42.2832 32.8868 41.7531 33.2664 41.4307 33.3585C41.2285 33.4182 41.2285 33.4236 41.1957 33.7598C41.152 34.3128 40.8733 34.6002 40.3815 34.6002C39.9224 34.6002 39.5727 34.2423 39.5727 33.7815V33.532L39.2448 33.467C38.8514 33.3911 38.1082 33.0278 37.8841 32.8055C37.5344 32.4585 37.5508 31.9217 37.9169 31.6235C38.2557 31.3469 38.4579 31.3523 39.0481 31.6451C39.4907 31.862 39.6164 31.9 39.9935 31.9271C40.2995 31.9488 40.5126 31.9325 40.7258 31.8729C41.5892 31.6235 41.8952 30.4685 41.223 30.0131C41.1247 29.948 40.8569 29.8287 40.6274 29.742C39.5017 29.3462 38.5289 28.7877 38.2448 28.3756C37.436 27.2261 37.906 25.529 39.2066 24.8946L39.5727 24.7157V24.4663C39.5727 23.8264 40.2777 23.4306 40.8187 23.756Z" fill="#363A60"/>
<path d="M27.0139 39.1248C25.8869 39.2984 24.8753 39.5588 24.3073 39.8279C23.7216 40.1057 22.8431 40.9477 22.5147 41.5554C21.9911 42.5016 22 42.4321 22 49.5069V56L34.0068 55.9826L46.0048 55.9566L46.7236 55.7222C47.1141 55.592 47.6909 55.3229 48.0104 55.1233C48.4097 54.8715 50.0869 53.3003 53.6632 49.8107C56.4586 47.0763 58.8103 44.7412 58.8813 44.611C59.041 44.3072 59.041 43.7342 58.8724 43.4131C58.6683 43.0224 57.7099 42.2932 56.9201 41.9287C55.9173 41.4599 55.2251 41.3037 54.1247 41.3037C52.9711 41.3037 52.3144 41.4599 51.1962 41.9894L50.3532 42.3974L46.9366 45.7134C44.0436 48.526 43.4401 49.0642 42.9875 49.2812L42.4551 49.5329L37.7961 49.559C33.2703 49.5763 33.1283 49.5763 32.8443 49.4027C32.019 48.8992 31.9924 47.7707 32.7999 47.2325L33.1194 47.0155L37.7873 46.9721L42.4551 46.9287L43.0497 46.6423C44.2388 46.0693 44.8689 45.0884 44.9576 43.6735C45.002 42.8141 44.8689 42.4582 44.3719 42.137C44.0791 41.946 44.017 41.9373 41.754 41.9373C38.16 41.9373 37.8849 41.8853 34.7966 40.5137C32.7378 39.6022 31.877 39.3071 30.7855 39.1161C29.8626 38.9599 28.0877 38.9599 27.0139 39.1248Z" fill="#F35369"/>
<path d="M16.1735 42.6661C15.7653 42.7541 15.5 42.9037 15.2551 43.1854C15.0612 43.4142 15.051 43.5815 15.0204 49.0649L15 54.6979L15.2245 55.006C15.6531 55.5517 15.9388 55.6133 18.0918 55.6133H20L19.9796 49.1177L19.949 42.6309L18.2143 42.6133C17.2653 42.6133 16.3469 42.6309 16.1735 42.6661Z" fill="#F35369"/>
</svg>
