<svg width="14" height="13" viewBox="0 0 14 13" fill="none" xmlns="http://www.w3.org/2000/svg">
<path d="M6.99957 0.34375C5.76893 0.34375 4.56593 0.708677 3.54269 1.39238C2.51945 2.07609 1.72193 3.04787 1.25098 4.18483C0.78004 5.32179 0.656819 6.57287 0.896905 7.77987C1.13699 8.98686 1.7296 10.0956 2.59979 10.9657C3.46999 11.8359 4.57868 12.4286 5.78567 12.6686C6.99267 12.9087 8.24375 12.7855 9.38071 12.3146C10.5177 11.8436 11.4895 11.0461 12.1732 10.0229C12.8569 8.99961 13.2218 7.79661 13.2218 6.56597C13.2218 4.91574 12.5662 3.33309 11.3993 2.1662C10.2325 0.999304 8.64981 0.34375 6.99957 0.34375ZM10.1107 8.93819C10.2138 9.04133 10.2718 9.18122 10.2718 9.32708C10.2718 9.47295 10.2138 9.61283 10.1107 9.71597C10.0075 9.81911 9.86765 9.87706 9.72179 9.87706C9.57593 9.87706 9.43604 9.81911 9.3329 9.71597L6.99957 7.38264L4.66624 9.72375C4.61517 9.77482 4.55454 9.81533 4.48781 9.84297C4.42109 9.87061 4.34957 9.88483 4.27735 9.88483C4.20512 9.88483 4.13361 9.87061 4.06688 9.84297C4.00016 9.81533 3.93953 9.77482 3.88846 9.72375C3.83739 9.67268 3.79688 9.61205 3.76924 9.54533C3.7416 9.4786 3.72737 9.40708 3.72737 9.33486C3.72737 9.26264 3.7416 9.19112 3.76924 9.1244C3.79688 9.05767 3.83739 8.99704 3.88846 8.94597L6.22179 6.59708L3.82235 4.17819C3.71921 4.07505 3.66126 3.93517 3.66126 3.78931C3.66126 3.64344 3.71921 3.50356 3.82235 3.40042C3.92549 3.29728 4.06537 3.23933 4.21124 3.23933C4.3571 3.23933 4.49698 3.29728 4.60012 3.40042L6.99957 5.82708L9.39901 3.42764C9.45008 3.37657 9.51071 3.33606 9.57744 3.30842C9.64416 3.28078 9.71568 3.26656 9.7879 3.26656C9.86013 3.26656 9.93164 3.28078 9.99837 3.30842C10.0651 3.33606 10.1257 3.37657 10.1768 3.42764C10.2279 3.47871 10.2684 3.53934 10.296 3.60606C10.3236 3.67279 10.3379 3.7443 10.3379 3.81653C10.3379 3.88875 10.3236 3.96027 10.296 4.02699C10.2684 4.09372 10.2279 4.15435 10.1768 4.20542L7.77735 6.59708L10.1107 8.93819Z" fill="#F35369"/>
</svg>
