<svg width="12" height="12" viewBox="0 0 12 12" fill="none" xmlns="http://www.w3.org/2000/svg">
<rect width="12" height="12" rx="6" fill="#F68F57"/>
<path d="M6.89844 6L8.46094 4.4375C8.66406 4.25 8.66406 3.9375 8.46094 3.75L8.11719 3.40625C7.92969 3.20312 7.61719 3.20312 7.42969 3.40625L5.86719 4.96875L4.28906 3.40625C4.10156 3.20312 3.78906 3.20312 3.60156 3.40625L3.25781 3.75C3.05469 3.9375 3.05469 4.25 3.25781 4.4375L4.82031 6L3.25781 7.57812C3.05469 7.76562 3.05469 8.07812 3.25781 8.26562L3.60156 8.60938C3.78906 8.8125 4.10156 8.8125 4.28906 8.60938L5.86719 7.04688L7.42969 8.60938C7.61719 8.8125 7.92969 8.8125 8.11719 8.60938L8.46094 8.26562C8.66406 8.07812 8.66406 7.76562 8.46094 7.57812L6.89844 6Z" fill="white"/>
</svg>
