<svg width="21" height="15" viewBox="0 0 21 15" fill="none" xmlns="http://www.w3.org/2000/svg">
<path d="M13.7812 7.10156C13.25 7.10156 12.75 6.82031 12.5 6.38281L10.5 3.03906L8.46875 6.38281C8.21875 6.85156 7.71875 7.13281 7.1875 7.13281C7.03125 7.13281 6.90625 7.10156 6.78125 7.07031L2.5 5.82031V11.3828C2.5 11.8516 2.8125 12.2578 3.25 12.3516L10 14.0703C10.3125 14.1328 10.6562 14.1328 10.9688 14.0703L17.7188 12.3516C18.1875 12.2578 18.5 11.8516 18.5 11.3828V5.82031L14.2188 7.07031C14.0625 7.10156 13.9375 7.10156 13.7812 7.10156ZM20.4375 3.60156L18.8125 0.382812C18.7188 0.195312 18.5312 0.101562 18.3125 0.132812L10.5 1.10156L13.3438 5.88281C13.4688 6.07031 13.7188 6.16406 13.9375 6.10156L20.125 4.32031C20.4375 4.22656 20.5625 3.88281 20.4375 3.60156ZM2.15625 0.382812L0.53125 3.60156C0.40625 3.88281 0.5625 4.22656 0.84375 4.32031L7.03125 6.10156C7.25 6.16406 7.5 6.07031 7.625 5.85156L10.5 1.10156L2.65625 0.132812C2.4375 0.101562 2.25 0.195312 2.15625 0.382812Z" fill="#F35369"/>
</svg>
