<svg width="17" height="16" viewBox="0 0 17 16" fill="none" xmlns="http://www.w3.org/2000/svg">
<path d="M10.4154 6.33333L10.1279 12.1667M6.86953 12.1667L6.58203 6.33333M2.7487 3L3.56542 13.6529C3.64532 14.6951 4.5143 15.5 5.55957 15.5H11.4378C12.4831 15.5 13.3521 14.6951 13.432 13.6529L14.2487 3M2.7487 3H5.6237M2.7487 3H0.832031M14.2487 3H16.1654M14.2487 3H11.3737M11.3737 3V2.5C11.3737 1.39543 10.4783 0.5 9.3737 0.5H7.6237C6.51913 0.5 5.6237 1.39543 5.6237 2.5V3M11.3737 3H5.6237" stroke="#F35369" stroke-linecap="round" stroke-linejoin="round"/>
</svg>
