<svg width="15" height="12" viewBox="0 0 15 12" fill="none" xmlns="http://www.w3.org/2000/svg">
<path d="M14.8346 1.83464C14.8346 0.917969 14.0846 0.167969 13.168 0.167969H11.5013C11.043 0.167969 10.668 0.542969 10.668 1.0013C10.668 1.45964 11.043 1.83464 11.5013 1.83464H13.168V4.04297L10.268 7.66797H7.33464V4.33464C7.33464 3.8763 6.95964 3.5013 6.5013 3.5013H4.0013C2.15964 3.5013 0.667969 4.99297 0.667969 6.83464V8.5013C0.667969 8.95964 1.04297 9.33464 1.5013 9.33464H2.33464C2.33464 10.718 3.4513 11.8346 4.83464 11.8346C6.21797 11.8346 7.33464 10.718 7.33464 9.33464H10.268C10.7763 9.33464 11.2513 9.1013 11.568 8.70964L14.468 5.08464C14.7096 4.78464 14.8346 4.41797 14.8346 4.04297V1.83464ZM4.83464 10.168C4.3763 10.168 4.0013 9.79297 4.0013 9.33464H5.66797C5.66797 9.79297 5.29297 10.168 4.83464 10.168Z" fill="#F68F57"/>
</svg>
