<svg width="13" height="17" viewBox="0 0 13 17" fill="none" xmlns="http://www.w3.org/2000/svg">
<path d="M12.2812 3.78125L9.21875 0.71875C9.0625 0.59375 8.875 0.5 8.6875 0.5H8.5V4.5H12.5V4.3125C12.5 4.125 12.4062 3.9375 12.2812 3.78125ZM7.5 4.75V0.5H1.25C0.8125 0.5 0.5 0.84375 0.5 1.25V15.75C0.5 16.1875 0.8125 16.5 1.25 16.5H11.75C12.1562 16.5 12.5 16.1875 12.5 15.75V5.5H8.25C7.8125 5.5 7.5 5.1875 7.5 4.75ZM2.5 2.75C2.5 2.625 2.59375 2.5 2.75 2.5H5.25C5.375 2.5 5.5 2.625 5.5 2.75V3.25C5.5 3.40625 5.375 3.5 5.25 3.5H2.75C2.59375 3.5 2.5 3.40625 2.5 3.25V2.75ZM2.5 5.25V4.75C2.5 4.625 2.59375 4.5 2.75 4.5H5.25C5.375 4.5 5.5 4.625 5.5 4.75V5.25C5.5 5.40625 5.375 5.5 5.25 5.5H2.75C2.59375 5.5 2.5 5.40625 2.5 5.25ZM7 13.5V14.25C7 14.4062 6.875 14.5 6.75 14.5H6.25C6.09375 14.5 6 14.4062 6 14.25V13.5C5.625 13.5 5.28125 13.375 5 13.1562C4.875 13.0625 4.875 12.875 5 12.7812L5.34375 12.4375C5.4375 12.3438 5.5625 12.3438 5.65625 12.4062C5.78125 12.4688 5.9375 12.5 6.0625 12.5H6.9375C7.15625 12.5 7.3125 12.3438 7.3125 12.0938C7.3125 11.9062 7.21875 11.75 7.03125 11.7188L5.625 11.2812C5.0625 11.0938 4.65625 10.5625 4.65625 9.9375C4.65625 9.15625 5.25 8.53125 5.96875 8.53125V7.75C5.96875 7.625 6.09375 7.5 6.21875 7.5H6.71875C6.875 7.5 6.96875 7.625 6.96875 7.75V8.53125C7.34375 8.53125 7.6875 8.65625 7.96875 8.875C8.09375 8.96875 8.09375 9.15625 7.96875 9.25L7.625 9.59375C7.53125 9.6875 7.40625 9.6875 7.3125 9.625C7.1875 9.5625 7.03125 9.5 6.90625 9.5H6.03125C5.8125 9.5 5.65625 9.6875 5.65625 9.9375C5.65625 10.125 5.75 10.2812 5.9375 10.3125L7.34375 10.75C7.90625 10.9062 8.3125 11.4688 8.3125 12.0938C8.3125 12.875 7.71875 13.5 7 13.5Z" fill="#F35369"/>
</svg>
