<svg width="27" height="39" viewBox="0 0 27 39" fill="none" xmlns="http://www.w3.org/2000/svg">
<path d="M5.46327 6.89108H24.1159V4.89614C24.1159 2.7017 22.3488 0.90625 20.189 0.90625H4.48155C2.32178 0.90625 0.554688 2.7017 0.554688 4.89614V34.8203C0.554688 37.0147 2.32178 38.8102 4.48155 38.8102H20.189C22.3488 38.8102 24.1159 37.0147 24.1159 34.8203V29.8329H5.46327C4.87424 29.8329 4.48155 29.4339 4.48155 28.8355V7.88855C4.48155 7.29007 4.87424 6.89108 5.46327 6.89108ZM13.317 36.3165H11.3536C10.2737 36.3165 9.39013 35.4188 9.39013 34.3216C9.39013 33.2243 10.2737 32.3266 11.3536 32.3266H13.317C14.3969 32.3266 15.2804 33.2243 15.2804 34.3216C15.2804 35.4188 14.3969 36.3165 13.317 36.3165Z" fill="#F35369"/>
<path d="M17.1948 9.08594C12.2862 9.08594 8.35938 13.0758 8.35938 18.0632C8.35938 23.0505 12.2862 27.0404 17.1948 27.0404C22.1034 27.0404 26.0303 23.0505 26.0303 18.0632C26.0303 13.1756 22.0052 9.08594 17.1948 9.08594ZM16.704 16.567L18.6674 17.5645C19.8455 18.1629 20.5327 19.4596 20.2381 20.8561C20.0418 21.9533 19.4528 22.7513 18.471 23.1503V23.4495C18.471 24.1478 17.882 24.6465 17.293 24.6465C16.6058 24.6465 16.1149 24.048 16.1149 23.4495V23.25C15.1332 22.9508 14.3478 22.2526 13.9552 21.2551C13.6606 20.6566 13.9552 19.8586 14.5442 19.6591C15.1332 19.3599 15.9186 19.6591 16.1149 20.2576C16.3113 20.7564 16.8021 21.0556 17.293 20.9559C17.6857 20.8561 17.7838 20.6566 17.7838 20.4571C17.7838 20.3574 17.7838 19.9584 17.4893 19.8586L15.5259 18.8612C14.3478 18.2627 13.6606 16.8662 13.9552 15.5695C14.1515 14.3725 15.035 13.4748 16.1149 13.1756V12.8763C16.1149 12.1781 16.704 11.6794 17.293 11.6794C17.9802 11.6794 18.471 12.2778 18.471 12.8763V13.3751C19.2564 13.7741 19.8455 14.3725 20.2381 15.1705C20.5327 15.769 20.2381 16.567 19.6491 16.7665C19.0601 17.0657 18.2747 16.7665 18.0784 16.168C17.882 15.6693 17.3912 15.37 16.9003 15.4698C16.5076 15.4698 16.4094 15.769 16.4094 15.9685C16.4094 15.9685 16.4094 16.3675 16.704 16.567Z" fill="#363A60"/>
</svg>
