<svg width="30" height="40" viewBox="0 0 30 40" fill="none" xmlns="http://www.w3.org/2000/svg">
<path d="M29.4531 8.20312L21.7969 0.546875C21.4062 0.234375 20.9375 0 20.4688 0H20V10H30V9.53125C30 9.0625 29.7656 8.59375 29.4531 8.20312ZM17.5 10.625V0H1.875C0.78125 0 0 0.859375 0 1.875V38.125C0 39.2188 0.78125 40 1.875 40H28.125C29.1406 40 30 39.2188 30 38.125V12.5H19.375C18.2812 12.5 17.5 11.7188 17.5 10.625ZM5 5.625C5 5.3125 5.23438 5 5.625 5H11.875C12.1875 5 12.5 5.3125 12.5 5.625V6.875C12.5 7.26562 12.1875 7.5 11.875 7.5H5.625C5.23438 7.5 5 7.26562 5 6.875V5.625ZM5 11.875V10.625C5 10.3125 5.23438 10 5.625 10H11.875C12.1875 10 12.5 10.3125 12.5 10.625V11.875C12.5 12.2656 12.1875 12.5 11.875 12.5H5.625C5.23438 12.5 5 12.2656 5 11.875ZM16.25 32.5V34.375C16.25 34.7656 15.9375 35 15.625 35H14.375C13.9844 35 13.75 34.7656 13.75 34.375V32.5C12.8125 32.5 11.9531 32.1875 11.25 31.6406C10.9375 31.4062 10.9375 30.9375 11.25 30.7031L12.1094 29.8438C12.3438 29.6094 12.6562 29.6094 12.8906 29.7656C13.2031 29.9219 13.5938 30 13.9062 30H16.0938C16.6406 30 17.0312 29.6094 17.0312 28.9844C17.0312 28.5156 16.7969 28.125 16.3281 28.0469L12.8125 26.9531C11.4062 26.4844 10.3906 25.1562 10.3906 23.5938C10.3906 21.6406 11.875 20.0781 13.6719 20.0781V18.125C13.6719 17.8125 13.9844 17.5 14.2969 17.5H15.5469C15.9375 17.5 16.1719 17.8125 16.1719 18.125V20.0781C17.1094 20.0781 17.9688 20.3906 18.6719 20.9375C18.9844 21.1719 18.9844 21.6406 18.6719 21.875L17.8125 22.7344C17.5781 22.9688 17.2656 22.9688 17.0312 22.8125C16.7188 22.6562 16.3281 22.5 16.0156 22.5H13.8281C13.2812 22.5 12.8906 22.9688 12.8906 23.5938C12.8906 24.0625 13.125 24.4531 13.5938 24.5312L17.1094 25.625C18.5156 26.0156 19.5312 27.4219 19.5312 28.9844C19.5312 30.9375 18.0469 32.5 16.25 32.5Z" fill="url(#paint0_linear_979_40117)"/>
<defs>
<linearGradient id="paint0_linear_979_40117" x1="50" y1="-4.99999" x2="-10.1905" y2="16.5898" gradientUnits="userSpaceOnUse">
<stop stop-color="#414780"/>
<stop offset="1" stop-color="#54598B"/>
</linearGradient>
</defs>
</svg>
