<svg width="15" height="15" viewBox="0 0 15 15" fill="none" xmlns="http://www.w3.org/2000/svg">
<path d="M9.13375 5.53713C8.97429 5.37767 8.78826 5.21822 8.60223 5.08534C8.4162 4.95246 8.20359 4.97903 8.04414 5.11191L7.48604 5.67001C7.27344 5.90919 7.16713 6.20152 7.16713 6.46728C7.16713 6.62674 7.24686 6.73304 7.35317 6.81277C7.43289 6.86592 7.5392 6.94565 7.6455 7.02537C8.38962 7.79607 8.38962 8.99199 7.6455 9.73611L5.83834 11.5167C5.09422 12.2874 3.87173 12.2874 3.1276 11.5167C2.38348 10.7726 2.41006 9.55008 3.15418 8.80596L3.49967 8.46047C3.63255 8.35417 3.65912 8.16814 3.60597 8.00868C3.44651 7.55689 3.36679 7.07853 3.34021 6.62674C3.34021 6.25467 2.88842 6.06864 2.62266 6.3344L1.63936 7.31771C0.0713811 8.88568 0.0713811 11.4635 1.63936 13.0315C3.20733 14.5995 5.78519 14.5995 7.35317 13.0315L9.13375 11.2509C9.13375 11.2509 9.13375 11.2509 9.13375 11.2244C10.7017 9.68296 10.7283 7.13168 9.13375 5.53713ZM12.8809 1.78993C11.313 0.221955 8.73511 0.221955 7.16713 1.78993L5.38655 3.57051C5.38655 3.57051 5.38655 3.57051 5.38655 3.59709C3.81858 5.13849 3.792 7.68977 5.38655 9.28432C5.54601 9.44378 5.73204 9.60323 5.91807 9.73611C6.1041 9.86899 6.31671 9.84241 6.47616 9.70954L7.03425 9.15144C7.24686 8.91226 7.35317 8.61993 7.35317 8.35417C7.35317 8.19471 7.27344 8.08841 7.16713 8.00868C7.08741 7.95553 6.9811 7.8758 6.8748 7.79607C6.13068 7.02537 6.13068 5.82946 6.8748 5.08534L8.68196 3.30475C9.42608 2.53405 10.6486 2.53405 11.3927 3.30475C12.1368 4.04888 12.1102 5.27137 11.3661 6.01549L11.0206 6.36098C10.8878 6.46728 10.8612 6.65331 10.9143 6.81277C11.0738 7.26456 11.1535 7.74292 11.1801 8.19471C11.1801 8.56677 11.6319 8.7528 11.8976 8.48705L12.8809 7.50374C14.4489 5.93576 14.4489 3.35791 12.8809 1.78993Z" fill="#F35369"/>
</svg>
