<svg width="26" height="21" viewBox="0 0 26 21" fill="none" xmlns="http://www.w3.org/2000/svg">
<path d="M13 15.5H5.5V9.25H3V19.25C3 19.9531 3.54688 20.5 4.25 20.5H14.25C14.9141 20.5 15.5 19.9531 15.5 19.25V9.25H13V15.5ZM25.2656 6.08594L21.9453 1.08594C21.7109 0.734375 21.3203 0.5 20.8906 0.5H5.07031C4.64062 0.5 4.25 0.734375 4.01562 1.08594L0.695312 6.08594C0.148438 6.90625 0.734375 8 1.75 8H24.25C25.2266 8 25.8125 6.90625 25.2656 6.08594ZM20.5 19.875C20.5 20.2266 20.7734 20.5 21.125 20.5H22.375C22.6875 20.5 23 20.2266 23 19.875V9.25H20.5V19.875Z" fill="#363A60"/>
</svg>
