<svg width="40" height="30" viewBox="0 0 40 30" fill="none" xmlns="http://www.w3.org/2000/svg">
<path d="M38.75 25H5V1.25C5 0.625 4.375 0 3.75 0H1.25C0.546875 0 0 0.625 0 1.25V27.5C0 28.9062 1.09375 30 2.5 30H38.75C39.375 30 40 29.4531 40 28.75V26.25C40 25.625 39.375 25 38.75 25ZM36.25 2.5H26.9531C25.3125 2.5 24.4531 4.53125 25.625 5.70312L28.2031 8.28125L22.5 13.9844L16.7188 8.28125C15.7812 7.26562 14.1406 7.26562 13.2031 8.28125L7.8125 13.6719C7.34375 14.1406 7.34375 14.9219 7.8125 15.3906L9.60938 17.1875C10.0781 17.6562 10.8594 17.6562 11.3281 17.1875L15 13.5938L20.7031 19.2969C21.6406 20.3125 23.2812 20.3125 24.2188 19.2969L31.7188 11.7969L34.2969 14.375C35.4688 15.5469 37.4219 14.6875 37.4219 13.0469V3.75C37.5 3.125 36.875 2.5 36.25 2.5Z" fill="url(#paint0_linear_979_40250)"/>
<defs>
<linearGradient id="paint0_linear_979_40250" x1="50" y1="-9.99999" x2="-10.1905" y2="11.5898" gradientUnits="userSpaceOnUse">
<stop stop-color="#414780"/>
<stop offset="1" stop-color="#54598B"/>
</linearGradient>
</defs>
</svg>
