<svg width="74" height="71" viewBox="0 0 74 71" fill="none" xmlns="http://www.w3.org/2000/svg">
<rect width="73" height="71" rx="35.5" transform="matrix(1 0 0 -1 0.5 71)" fill="#F35369" fill-opacity="0.08"/>
<g clip-path="url(#clip0_1055_40330)">
<path d="M58.0734 32.6168C57.3497 22.1174 48.9657 13.7274 38.4739 13.0032C37.673 12.9478 36.9985 13.6237 36.9985 14.427V34.0934H56.6515C57.4542 34.0934 58.1287 33.4184 58.0734 32.6168ZM32.7828 38.3122V17.4566C32.7828 16.6172 32.0459 15.9273 31.2159 16.0451C20.7496 17.5252 12.7495 26.6754 13.1219 37.6416C13.5048 48.9039 23.1947 58.1394 34.4541 57.9979C38.8806 57.9425 42.9707 56.5152 46.3336 54.1281C47.0274 53.6359 47.0731 52.6137 46.4715 52.0117L32.7828 38.3122Z" fill="#F35369"/>
<path d="M51.8793 51.8894L38 38H48.4202H58.8404C59.6792 38 60.3686 38.7374 60.2509 39.5688C59.565 44.4248 57.227 48.7446 53.8281 51.9491C53.2827 52.4633 52.4097 52.4202 51.8793 51.8894Z" fill="#363A60"/>
</g>
<defs>
<clipPath id="clip0_1055_40330">
<rect width="47.7778" height="45" fill="white" transform="translate(13.1094 13)"/>
</clipPath>
</defs>
</svg>
