<svg width="74" height="71" viewBox="0 0 74 71" fill="none" xmlns="http://www.w3.org/2000/svg">
<rect width="73" height="71" rx="35.5" transform="matrix(1 0 0 -1 0.832031 71)" fill="#F35369" fill-opacity="0.08"/>
<g clip-path="url(#clip0_507_32730)">
<path d="M30.0576 16.5648C29.4713 16.7504 28.885 17.2254 28.6104 17.7523C28.3729 18.2125 28.3432 19.0734 28.3655 24.7363L28.3877 30.3398H37.3311H46.2744L46.2967 24.7363C46.319 19.0734 46.2893 18.2125 46.0518 17.7523C45.8514 17.3813 45.4135 16.9434 45.0201 16.7355C44.6565 16.5426 44.5971 16.5352 43.2166 16.5129L41.7842 16.4832V18.7395C41.7842 21.248 41.7694 21.3445 41.2721 21.6711L41.0198 21.8418H37.3311H33.6424L33.3901 21.6711C32.8928 21.3445 32.878 21.248 32.878 18.7395V16.498L31.5643 16.5055C30.8369 16.5055 30.1616 16.5352 30.0576 16.5648Z" fill="#F35369"/>
<path d="M35.1055 18.0586V19.6172H37.332H39.5586V18.0586V16.5H37.332H35.1055V18.0586Z" fill="#363A60"/>
<path d="M28.5004 32.8188C28.6488 33.3309 29.1016 33.8652 29.6434 34.1473L30.0219 34.3477H37.3324H44.643L45.0215 34.1473C45.5633 33.8652 46.016 33.3309 46.1645 32.8188L46.2312 32.6035H37.3324H28.4336L28.5004 32.8188Z" fill="#363A60"/>
<path d="M19.8535 36.743C19.3934 36.8988 19.0074 37.1883 18.7402 37.5668C18.3246 38.1754 18.332 38.0492 18.332 44.5285V50.4883H27.2754H36.2188L36.2039 44.3801C36.1816 38.3164 36.1816 38.2793 36.0258 37.9379C35.818 37.4926 35.3356 37.0102 34.8902 36.8023C34.5859 36.6613 34.393 36.6465 33.1609 36.6242L31.7731 36.5945L31.7508 38.8879C31.7285 41.1145 31.7211 41.1813 31.5578 41.441C31.2313 41.968 31.3203 41.9605 27.1863 41.9383C23.6238 41.916 23.4828 41.9086 23.2899 41.7676C22.8297 41.4187 22.8223 41.3891 22.8 38.8879L22.7777 36.6094H21.5012C20.4844 36.6168 20.1504 36.6391 19.8535 36.743Z" fill="#F35369"/>
<path d="M25.0117 38.168V39.7266H27.2754H29.5391V38.168V36.6094H27.2754H25.0117V38.168Z" fill="#363A60"/>
<path d="M39.9668 36.743C39.5066 36.8988 39.1207 37.1883 38.8535 37.5668C38.4379 38.1754 38.4453 38.0492 38.4453 44.5285V50.4883H47.3887H56.332L56.3172 44.3801C56.2949 38.3164 56.2949 38.2793 56.1391 37.9379C55.9313 37.4926 55.4488 37.0102 55.0035 36.8023C54.6992 36.6613 54.5063 36.6465 53.2742 36.6242L51.8863 36.5945L51.8641 38.8879C51.8418 41.1145 51.8344 41.1813 51.6711 41.441C51.3445 41.968 51.4336 41.9605 47.2996 41.9383C43.7371 41.916 43.5961 41.9086 43.4031 41.7676C42.943 41.4187 42.9356 41.3891 42.9133 38.8879L42.891 36.6094H41.6145C40.5977 36.6168 40.2637 36.6391 39.9668 36.743Z" fill="#F35369"/>
<path d="M45.125 38.168V39.7266H47.3887H49.6523V38.168V36.6094H47.3887H45.125V38.168Z" fill="#363A60"/>
<path d="M18.4062 52.8059C18.4137 53.2363 19.0891 54.0379 19.6605 54.3051L20.002 54.4609H27.2754H34.5488L34.8902 54.3051C35.4617 54.0379 36.1371 53.2363 36.1445 52.8059C36.1445 52.7391 34.3187 52.7168 27.2754 52.7168C20.232 52.7168 18.4062 52.7391 18.4062 52.8059Z" fill="#363A60"/>
<path d="M38.5195 52.8059C38.527 53.2363 39.2023 54.0379 39.7738 54.3051L40.1152 54.4609H47.3887H54.6621L55.0035 54.3051C55.575 54.0379 56.2504 53.2363 56.2578 52.8059C56.2578 52.7391 54.432 52.7168 47.3887 52.7168C40.3453 52.7168 38.5195 52.7391 38.5195 52.8059Z" fill="#363A60"/>
</g>
<defs>
<clipPath id="clip0_507_32730">
<rect width="38" height="38" fill="white" transform="translate(18.332 16.5)"/>
</clipPath>
</defs>
</svg>
