<svg width="74" height="71" viewBox="0 0 74 71" fill="none" xmlns="http://www.w3.org/2000/svg">
<rect width="73" height="71" rx="35.5" transform="matrix(1 0 0 -1 0.167969 71)" fill="#F35369" fill-opacity="0.08"/>
<g clip-path="url(#clip0_784_53766)">
<path d="M26.3346 15C23.4849 15 21.168 17.2982 21.168 20.125V50.875C21.168 53.7018 23.4849 56 26.3346 56H47.0013C49.851 56 52.168 53.7018 52.168 50.875V27.8125H41.8346C40.4057 27.8125 39.2513 26.6674 39.2513 25.25V15H26.3346ZM27.6263 20.125H32.793C33.5034 20.125 34.0846 20.7016 34.0846 21.4062C34.0846 22.1109 33.5034 22.6875 32.793 22.6875H27.6263C26.9159 22.6875 26.3346 22.1109 26.3346 21.4062C26.3346 20.7016 26.9159 20.125 27.6263 20.125ZM27.6263 25.25H32.793C33.5034 25.25 34.0846 25.8266 34.0846 26.5312C34.0846 27.2359 33.5034 27.8125 32.793 27.8125H27.6263C26.9159 27.8125 26.3346 27.2359 26.3346 26.5312C26.3346 25.8266 26.9159 25.25 27.6263 25.25ZM28.918 32.9375H44.418C45.8469 32.9375 47.0013 34.0826 47.0013 35.5V40.625C47.0013 42.0424 45.8469 43.1875 44.418 43.1875H28.918C27.4891 43.1875 26.3346 42.0424 26.3346 40.625V35.5C26.3346 34.0826 27.4891 32.9375 28.918 32.9375ZM40.543 48.3125H45.7096C46.4201 48.3125 47.0013 48.8891 47.0013 49.5938C47.0013 50.2984 46.4201 50.875 45.7096 50.875H40.543C39.8326 50.875 39.2513 50.2984 39.2513 49.5938C39.2513 48.8891 39.8326 48.3125 40.543 48.3125Z" fill="#F35369"/>
<path d="M41.668 24.25V17.4005C41.668 16.5115 42.7411 16.0645 43.3722 16.6905L50.2774 23.54C50.9113 24.1688 50.4661 25.25 49.5732 25.25H42.668C42.1157 25.25 41.668 24.8023 41.668 24.25Z" fill="#363A60"/>
<path d="M41.8555 40.625H31.4805C30.0652 40.625 28.918 39.4777 28.918 38.0625C28.918 36.6473 30.0652 35.5 31.4805 35.5H41.8555C43.2707 35.5 44.418 36.6473 44.418 38.0625C44.418 39.4777 43.2707 40.625 41.8555 40.625Z" fill="#363A60"/>
</g>
<defs>
<clipPath id="clip0_784_53766">
<rect width="31" height="41" fill="white" transform="translate(21.168 15)"/>
</clipPath>
</defs>
</svg>
