<svg width="11" height="15" viewBox="0 0 11 15" fill="none" xmlns="http://www.w3.org/2000/svg">
<path d="M2.04167 0.5C1.1224 0.5 0.375 1.28477 0.375 2.25V12.75C0.375 13.7152 1.1224 14.5 2.04167 14.5H8.70833C9.6276 14.5 10.375 13.7152 10.375 12.75V4.875H7.04167C6.58073 4.875 6.20833 4.48398 6.20833 4V0.5H2.04167ZM7.04167 0.5V4H10.375L7.04167 0.5ZM2.04167 2.6875C2.04167 2.44687 2.22917 2.25 2.45833 2.25H4.125C4.35417 2.25 4.54167 2.44687 4.54167 2.6875C4.54167 2.92812 4.35417 3.125 4.125 3.125H2.45833C2.22917 3.125 2.04167 2.92812 2.04167 2.6875ZM2.04167 4.4375C2.04167 4.19688 2.22917 4 2.45833 4H4.125C4.35417 4 4.54167 4.19688 4.54167 4.4375C4.54167 4.67812 4.35417 4.875 4.125 4.875H2.45833C2.22917 4.875 2.04167 4.67812 2.04167 4.4375ZM5.375 6.40625C5.60417 6.40625 5.79167 6.60313 5.79167 6.84375V7.3168C6.01302 7.34961 6.22656 7.40156 6.41927 7.45625C6.64062 7.51914 6.77344 7.75703 6.71354 7.99219C6.65365 8.22734 6.42708 8.36406 6.20312 8.30117C5.91406 8.21914 5.63021 8.15898 5.36719 8.15625C5.14844 8.15352 4.91406 8.20547 4.7526 8.30664C4.60417 8.39961 4.54167 8.50625 4.54167 8.65664C4.54167 8.75781 4.57552 8.83437 4.73177 8.93281C4.91146 9.04492 5.16406 9.12695 5.49219 9.23086L5.50521 9.23359C5.79948 9.32656 6.16406 9.44141 6.45052 9.63281C6.76562 9.84062 7.03385 10.1715 7.04167 10.6773C7.04948 11.2051 6.79167 11.5879 6.44531 11.8148C6.24479 11.9461 6.01823 12.0227 5.79167 12.0637V12.5312C5.79167 12.7719 5.60417 12.9688 5.375 12.9688C5.14583 12.9688 4.95833 12.7719 4.95833 12.5312V12.0445C4.66667 11.9871 4.39323 11.8887 4.15365 11.8012C4.09896 11.782 4.04427 11.7629 3.99219 11.7438C3.77344 11.6672 3.65625 11.4184 3.72917 11.1914C3.80208 10.9645 4.03906 10.8387 4.25521 10.9152C4.32031 10.9371 4.38021 10.959 4.4401 10.9809C4.79427 11.1066 5.08073 11.2105 5.38542 11.2188C5.6224 11.227 5.85156 11.1723 6.0026 11.0738C6.13542 10.9863 6.20833 10.8742 6.20573 10.691C6.20312 10.5652 6.15885 10.4777 6.00521 10.3738C5.82812 10.2563 5.57552 10.1715 5.25 10.0676L5.20833 10.0539C4.92188 9.96367 4.57552 9.8543 4.30208 9.6793C3.98958 9.48242 3.71354 9.1625 3.71094 8.65938C3.70833 8.12891 3.99219 7.7625 4.33073 7.55195C4.52604 7.43164 4.74219 7.35508 4.95833 7.31406V6.84375C4.95833 6.60313 5.14583 6.40625 5.375 6.40625Z" fill="#F35369"/>
</svg>
