<svg width="35" height="40" viewBox="0 0 35 40" fill="none" xmlns="http://www.w3.org/2000/svg">
<path d="M35 28.125V1.875C35 0.859375 34.1406 0 33.125 0H7.5C3.35938 0 0 3.35938 0 7.5V32.5C0 36.6406 3.35938 40 7.5 40H33.125C34.1406 40 35 39.2188 35 38.125V36.875C35 36.3281 34.6875 35.7812 34.2969 35.4688C33.9062 34.2188 33.9062 30.7812 34.2969 29.6094C34.6875 29.2969 35 28.75 35 28.125ZM10 10.4688C10 10.2344 10.1562 10 10.4688 10H27.0312C27.2656 10 27.5 10.2344 27.5 10.4688V12.0312C27.5 12.3438 27.2656 12.5 27.0312 12.5H10.4688C10.1562 12.5 10 12.3438 10 12.0312V10.4688ZM10 15.4688C10 15.2344 10.1562 15 10.4688 15H27.0312C27.2656 15 27.5 15.2344 27.5 15.4688V17.0312C27.5 17.3438 27.2656 17.5 27.0312 17.5H10.4688C10.1562 17.5 10 17.3438 10 17.0312V15.4688ZM29.7656 35H7.5C6.09375 35 5 33.9062 5 32.5C5 31.1719 6.09375 30 7.5 30H29.7656C29.6094 31.4062 29.6094 33.6719 29.7656 35Z" fill="url(#paint0_linear_979_40027)"/>
<defs>
<linearGradient id="paint0_linear_979_40027" x1="50" y1="-4.99999" x2="-10.1905" y2="16.5898" gradientUnits="userSpaceOnUse">
<stop stop-color="#414780"/>
<stop offset="1" stop-color="#54598B"/>
</linearGradient>
</defs>
</svg>
