<svg width="44" height="41" viewBox="0 0 44 41" fill="none" xmlns="http://www.w3.org/2000/svg">
<path d="M42.1719 22.5H23.6562L36 34.9219C36.4688 35.3906 37.25 35.3906 37.7188 34.9219C40.7656 32.1094 42.875 28.2812 43.4219 23.9062C43.5781 23.2031 42.9531 22.5 42.1719 22.5ZM40.9219 17.5C40.2969 8.125 32.875 0.703125 23.5 0.078125C22.7969 0 22.25 0.625 22.25 1.32812V18.75H39.6719C40.375 18.75 41 18.2031 40.9219 17.5ZM18.5 22.5V3.98438C18.5 3.28125 17.7969 2.65625 17.0938 2.73438C7.71875 4.0625 0.609375 12.1875 1 21.9531C1.3125 31.9531 9.90625 40.1562 19.9844 40C23.8906 40 27.5625 38.75 30.5312 36.5625C31.1562 36.1719 31.1562 35.2344 30.6094 34.6875L18.5 22.5Z" fill="url(#paint0_linear_979_39915)"/>
<defs>
<linearGradient id="paint0_linear_979_39915" x1="51" y1="-4.99999" x2="-9.19049" y2="16.5898" gradientUnits="userSpaceOnUse">
<stop stop-color="#414780"/>
<stop offset="1" stop-color="#54598B"/>
</linearGradient>
</defs>
</svg>
