<svg width="40" height="30" viewBox="0 0 40 30" fill="none" xmlns="http://www.w3.org/2000/svg">
<path d="M25.9375 20H28.9844C29.4531 20 30 19.5312 30 19.0625V8.51562C30 8.04688 29.4531 7.5 28.9844 7.5H25.9375C25.4688 7.5 25 8.04688 25 8.51562V19.0625C25 19.5312 25.4688 20 25.9375 20ZM33.4375 20H36.4844C36.9531 20 37.5 19.5312 37.5 19.0625V1.01562C37.5 0.546875 36.9531 0 36.4844 0H33.4375C32.9688 0 32.5 0.546875 32.5 1.01562V19.0625C32.5 19.5312 32.9688 20 33.4375 20ZM10.9375 20H13.9844C14.4531 20 15 19.5312 15 19.0625V13.5156C15 13.0469 14.4531 12.5 13.9844 12.5H10.9375C10.4688 12.5 10 13.0469 10 13.5156V19.0625C10 19.5312 10.4688 20 10.9375 20ZM18.4375 20H21.4844C21.9531 20 22.5 19.5312 22.5 19.0625V3.51562C22.5 3.04688 21.9531 2.5 21.4844 2.5H18.4375C17.9688 2.5 17.5 3.04688 17.5 3.51562V19.0625C17.5 19.5312 17.9688 20 18.4375 20ZM38.75 25H5V1.25C5 0.625 4.375 0 3.75 0H1.25C0.546875 0 0 0.625 0 1.25V27.5C0 28.9062 1.09375 30 2.5 30H38.75C39.375 30 40 29.4531 40 28.75V26.25C40 25.625 39.375 25 38.75 25Z" fill="url(#paint0_linear_979_39938)"/>
<defs>
<linearGradient id="paint0_linear_979_39938" x1="50" y1="-9.99999" x2="-10.1905" y2="11.5898" gradientUnits="userSpaceOnUse">
<stop stop-color="#414780"/>
<stop offset="1" stop-color="#54598B"/>
</linearGradient>
</defs>
</svg>
