<svg width="74" height="71" viewBox="0 0 74 71" fill="none" xmlns="http://www.w3.org/2000/svg">
<rect width="73" height="71" rx="35.5" transform="matrix(1 0 0 -1 0.5 71)" fill="#F35369" fill-opacity="0.08"/>
<g clip-path="url(#clip0_1055_40338)">
<path d="M30.55 35.5C35.3002 35.5 39.15 31.6949 39.15 27C39.15 22.3051 35.3002 18.5 30.55 18.5C25.7998 18.5 21.95 22.3051 21.95 27C21.95 31.6949 25.7998 35.5 30.55 35.5ZM36.57 37.625H35.448C33.9564 38.3023 32.2969 38.6875 30.55 38.6875C28.8031 38.6875 27.1503 38.3023 25.652 37.625H24.53C19.5447 37.625 15.5 41.6227 15.5 46.55V49.3125C15.5 51.0723 16.9445 52.5 18.725 52.5H37.1948C37.0336 52.0484 36.9664 51.5703 37.0202 51.0856L37.477 47.0414L37.5577 46.3043L38.0884 45.7797L43.282 40.6465C41.6359 38.807 39.2508 37.625 36.57 37.625ZM39.6136 47.2738L39.1567 51.3246C39.0828 52.002 39.6606 52.5731 40.3392 52.4934L44.4309 52.0418L53.6961 42.8844L48.8787 38.123L39.6136 47.2738ZM58.0297 36.3566L55.4833 33.8398C54.8584 33.2223 53.8372 33.2223 53.2123 33.8398L50.6727 36.35L50.3972 36.6223L55.2212 41.3836L58.0297 38.6078C58.6545 37.9836 58.6545 36.9809 58.0297 36.3566Z" fill="#F35369"/>
<path d="M39.1581 51.3246L39.615 47.2738L48.8802 38.123L53.6975 42.8844L44.4323 52.0418L40.3406 52.4934C39.662 52.573 39.0842 52.002 39.1581 51.3246Z" fill="#363A60"/>
</g>
<defs>
<clipPath id="clip0_1055_40338">
<rect width="43" height="34" fill="white" transform="translate(15.5 18.5)"/>
</clipPath>
</defs>
</svg>
