<svg width="51" height="52" viewBox="0 0 51 52" fill="none" xmlns="http://www.w3.org/2000/svg">
<path d="M25.4987 4.89844C13.8513 4.89844 4.39844 14.3513 4.39844 25.9987C4.39844 37.646 13.8513 47.0989 25.4987 47.0989C37.146 47.0989 46.5989 37.646 46.5989 25.9987C46.5989 14.3513 37.146 4.89844 25.4987 4.89844ZM25.4987 42.8788C16.1724 42.8788 8.61848 35.325 8.61848 25.9987C8.61848 16.6724 16.1724 9.11848 25.4987 9.11848C34.825 9.11848 42.3788 16.6724 42.3788 25.9987C42.3788 35.325 34.825 42.8788 25.4987 42.8788Z" fill="#F35369"/>
<path d="M14.9502 29.166C16.6982 29.166 18.1152 27.749 18.1152 26.001C18.1152 24.253 16.6982 22.8359 14.9502 22.8359C13.2022 22.8359 11.7852 24.253 11.7852 26.001C11.7852 27.749 13.2022 29.166 14.9502 29.166Z" fill="#363A60"/>
<path d="M25.501 29.166C27.249 29.166 28.666 27.749 28.666 26.001C28.666 24.253 27.249 22.8359 25.501 22.8359C23.753 22.8359 22.3359 24.253 22.3359 26.001C22.3359 27.749 23.753 29.166 25.501 29.166Z" fill="#363A60"/>
<path d="M36.0518 29.166C37.7998 29.166 39.2168 27.749 39.2168 26.001C39.2168 24.253 37.7998 22.8359 36.0518 22.8359C34.3038 22.8359 32.8867 24.253 32.8867 26.001C32.8867 27.749 34.3038 29.166 36.0518 29.166Z" fill="#363A60"/>
</svg>
