<svg width="4" height="11" viewBox="0 0 4 11" fill="none" xmlns="http://www.w3.org/2000/svg">
<path d="M1.875 3.85547C1.03711 3.85547 0.328125 4.56445 0.328125 5.40234C0.328125 6.26172 1.03711 6.94922 1.875 6.94922C2.73437 6.94922 3.42187 6.26172 3.42187 5.40234C3.42187 4.56445 2.73437 3.85547 1.875 3.85547ZM0.328125 1.62109C0.328125 2.48047 1.03711 3.16797 1.875 3.16797C2.73437 3.16797 3.42187 2.48047 3.42187 1.62109C3.42187 0.783203 2.73437 0.0742184 1.875 0.0742184C1.03711 0.0742184 0.328125 0.783203 0.328125 1.62109ZM0.328125 9.18359C0.328125 10.043 1.03711 10.7305 1.875 10.7305C2.73437 10.7305 3.42187 10.043 3.42187 9.18359C3.42187 8.3457 2.73437 7.63672 1.875 7.63672C1.03711 7.63672 0.328125 8.3457 0.328125 9.18359Z" fill="#5D6E82"/>
</svg>
