<svg width="50" height="36" viewBox="0 0 50 36" fill="none" xmlns="http://www.w3.org/2000/svg">
<path d="M48.5156 2.29688C45.4688 1.04688 42.4219 0.5 39.375 0.5C29.7656 0.5 20.1562 5.42188 10.5469 5.42188C8.125 5.42188 5.70312 5.10938 3.28125 4.32812C3.04688 4.25 2.73438 4.17188 2.5 4.17188C1.17188 4.17188 0 5.26562 0 6.67188V31.5156C0 32.4531 0.546875 33.3906 1.40625 33.7812C4.45312 35.0312 7.5 35.5 10.5469 35.5C20.1562 35.5 29.7656 30.6562 39.375 30.6562C41.7969 30.6562 44.2188 30.9688 46.6406 31.75C46.875 31.8281 47.1875 31.8281 47.4219 31.8281C48.75 31.8281 50 30.8125 50 29.4062V4.5625C50 3.625 49.375 2.6875 48.5156 2.29688ZM3.75 8.39062C5.3125 8.78125 6.95312 8.9375 8.59375 9.09375C8.125 11.3594 6.17188 13.0781 3.75 13.0781V8.39062ZM3.75 30.6562V26.9062C6.40625 26.9062 8.59375 29.0156 8.67188 31.6719C6.95312 31.5938 5.3125 31.2031 3.75 30.6562ZM25 25.5C21.4844 25.5 18.75 22.2188 18.75 18C18.75 13.8594 21.4844 10.5 25 10.5C28.4375 10.5 31.25 13.8594 31.25 18C31.25 22.2188 28.4375 25.5 25 25.5ZM46.25 27.6875C44.8438 27.375 43.4375 27.1406 41.9531 27.0625C42.4219 25.0312 44.1406 23.4688 46.25 23.2344V27.6875ZM46.25 9.25C43.8281 8.9375 41.9531 6.90625 41.875 4.48438C43.3594 4.64062 44.8438 4.95312 46.25 5.42188V9.25Z" fill="url(#paint0_linear_979_40005)"/>
<defs>
<linearGradient id="paint0_linear_979_40005" x1="50" y1="-6.99999" x2="-10.1905" y2="14.5898" gradientUnits="userSpaceOnUse">
<stop stop-color="#414780"/>
<stop offset="1" stop-color="#54598B"/>
</linearGradient>
</defs>
</svg>
