<svg width="37" height="40" viewBox="0 0 37 40" fill="none" xmlns="http://www.w3.org/2000/svg">
<path d="M9.75 17.5C14.5156 17.5 18.5 13.5938 18.5 8.75C18.5 3.98438 14.5156 0 9.75 0C4.90625 0 1 3.98438 1 8.75C1 13.5938 4.90625 17.5 9.75 17.5ZM9.75 5C11.7812 5 13.5 6.71875 13.5 8.75C13.5 10.8594 11.7812 12.5 9.75 12.5C7.64062 12.5 6 10.8594 6 8.75C6 6.71875 7.64062 5 9.75 5ZM27.25 22.5C22.4062 22.5 18.5 26.4844 18.5 31.25C18.5 36.0938 22.4062 40 27.25 40C32.0156 40 36 36.0938 36 31.25C36 26.4844 32.0156 22.5 27.25 22.5ZM27.25 35C25.1406 35 23.5 33.3594 23.5 31.25C23.5 29.2188 25.1406 27.5 27.25 27.5C29.2812 27.5 31 29.2188 31 31.25C31 33.3594 29.2812 35 27.25 35ZM31.625 0.078125C31 0.078125 30.4531 0.3125 30.0625 0.859375L1.3125 37.1094C0.453125 38.2812 1.3125 40 2.875 40H5.45312C6.07812 40 6.70312 39.6875 7.01562 39.2188L35.6094 2.96875C36.4688 1.71875 35.6094 0 34.0469 0.078125H31.625Z" fill="url(#paint0_linear_979_40071)"/>
<defs>
<linearGradient id="paint0_linear_979_40071" x1="51" y1="-4.99999" x2="-9.19049" y2="16.5898" gradientUnits="userSpaceOnUse">
<stop stop-color="#414780"/>
<stop offset="1" stop-color="#54598B"/>
</linearGradient>
</defs>
</svg>
