<svg width="22" height="21" viewBox="0 0 22 21" fill="none" xmlns="http://www.w3.org/2000/svg">
<path d="M5.3671 0.246094C2.89433 0.246094 0.882812 2.25762 0.882812 4.73038C0.882812 7.20314 2.89433 9.21466 5.3671 9.21466C7.83986 9.21466 9.85138 7.20314 9.85138 4.73038C9.85138 2.25762 7.83986 0.246094 5.3671 0.246094ZM5.3671 6.65222C4.30368 6.65222 3.44526 5.79379 3.44526 4.73038C3.44526 3.66696 4.30368 2.80854 5.3671 2.80854C6.43051 2.80854 7.28893 3.66696 7.28893 4.73038C7.28893 5.79379 6.43051 6.65222 5.3671 6.65222ZM16.8981 11.7771C14.4254 11.7771 12.4138 13.7886 12.4138 16.2614C12.4138 18.7342 14.4254 20.7457 16.8981 20.7457C19.3709 20.7457 21.3824 18.7342 21.3824 16.2614C21.3824 13.7886 19.3709 11.7771 16.8981 11.7771ZM16.8981 18.1832C15.8347 18.1832 14.9763 17.3248 14.9763 16.2614C14.9763 15.198 15.8347 14.3396 16.8981 14.3396C17.9615 14.3396 18.82 15.198 18.82 16.2614C18.82 17.3248 17.9615 18.1832 16.8981 18.1832ZM2.68934 20.7457L0.882812 18.9392L19.5759 0.246094L21.3824 2.05262L2.68934 20.7457Z" fill="#27CE6A"/>
</svg>
