<svg width="74" height="71" viewBox="0 0 74 71" fill="none" xmlns="http://www.w3.org/2000/svg">
<rect width="73" height="71" rx="35.5" transform="matrix(1 0 0 -1 0.5 71)" fill="#F35369" fill-opacity="0.08"/>
<path d="M22.8082 16.6668C22.6164 16.7502 22.3959 16.9633 22.3 17.1486C22.1753 17.3895 21.8685 19.53 21.0822 25.6456C20.4973 30.1396 20.0274 34.0313 20.0274 34.2908C20.0274 34.6892 20.0753 34.8004 20.3534 35.1062L20.6795 35.449L24.9178 35.4768L29.1466 35.5046L29.089 35.7085C28.8205 36.5795 27.7082 38.3956 26.7014 39.5817L26.1644 40.221H21.0342C17.611 40.221 15.7411 40.2581 15.4055 40.323C14.2452 40.5639 13.3247 41.2774 12.8068 42.3337L12.5 42.9545V47.3559V51.7573L12.8068 52.3781C13.3247 53.4344 14.2452 54.1479 15.4055 54.3888C16.1247 54.5371 57.8753 54.5371 58.5945 54.3888C59.7548 54.1479 60.6753 53.4344 61.1931 52.3781L61.5 51.7573V47.3559V42.9545L61.1931 42.3337C60.6753 41.2774 59.7548 40.5639 58.5945 40.323C58.2589 40.2581 56.389 40.221 52.9658 40.221H47.8356L47.2986 39.5817C46.2918 38.3956 45.1795 36.5795 44.911 35.7085L44.8534 35.5046L49.0822 35.4768L53.3205 35.449L53.6466 35.1062C53.9247 34.8004 53.9726 34.6892 53.9726 34.2908C53.9726 34.0313 53.5027 30.1396 52.9178 25.6456C52.1315 19.53 51.8247 17.3895 51.7 17.1486C51.6041 16.9633 51.3836 16.7502 51.1918 16.6668C50.8753 16.5093 50.0027 16.5 37 16.5C23.9973 16.5 23.1247 16.5093 22.8082 16.6668ZM47.9986 25.8587C48.3247 28.3791 48.5931 30.5195 48.6027 30.6029C48.6027 30.7604 47.989 30.7697 37 30.7697C30.6233 30.7697 25.3973 30.7419 25.3973 30.6956C25.3877 30.5566 26.5671 21.4481 26.5959 21.3369C26.6342 21.2442 28.763 21.2257 37.0192 21.2442L47.3945 21.272L47.9986 25.8587ZM39.7808 35.6529C39.7808 36.0235 40.5671 38.0435 41.0945 39.0257C41.4014 39.6095 41.6603 40.1099 41.6795 40.1469C41.6986 40.1932 39.589 40.221 37 40.221C34.411 40.221 32.3014 40.1932 32.3205 40.1469C32.3397 40.1099 32.5986 39.6095 32.9055 39.0257C33.4329 38.0435 34.2192 36.0235 34.2192 35.6529C34.2192 35.5046 34.4205 35.4954 37 35.4954C39.5795 35.4954 39.7808 35.5046 39.7808 35.6529Z" fill="#F35369"/>
<path d="M38.5817 51.4801C41.7883 49.851 41.806 45.1586 38.6349 43.5826C37.4125 42.9806 36.4736 42.8566 35.4106 43.1576C33.0367 43.7951 31.6017 46.0793 32.0978 48.399C32.7355 51.3738 35.8712 52.8612 38.5817 51.4801Z" fill="#FEF2F3"/>
<path d="M37.6565 49.7112C39.4379 48.8061 39.4478 46.1992 37.686 45.3237C37.0069 44.9892 36.4853 44.9203 35.8948 45.0876C34.576 45.4417 33.7787 46.7107 34.0543 47.9994C34.4086 49.6521 36.1507 50.4785 37.6565 49.7112Z" fill="#363A60"/>
</svg>
