<svg width="12" height="11" viewBox="0 0 12 11" fill="none" xmlns="http://www.w3.org/2000/svg">
<path d="M2.3379 1.75879C2.3379 1.48814 2.44542 1.22857 2.6368 1.03718C2.82818 0.845799 3.08776 0.738281 3.35841 0.738281H8.12081C8.39146 0.738281 8.65103 0.845799 8.84242 1.03718C9.0338 1.22857 9.14132 1.48814 9.14132 1.75879V2.09897H9.48149C9.93258 2.09897 10.3652 2.27816 10.6842 2.59713C11.0031 2.91611 11.1823 3.34873 11.1823 3.79982V7.20153C11.1823 7.47219 11.0748 7.73176 10.8834 7.92314C10.6921 8.11452 10.4325 8.22204 10.1618 8.22204H9.14132V9.24255C9.14132 9.51321 9.0338 9.77278 8.84242 9.96417C8.65103 10.1555 8.39146 10.2631 8.12081 10.2631H3.35841C3.08776 10.2631 2.82818 10.1555 2.6368 9.96417C2.44542 9.77278 2.3379 9.51321 2.3379 9.24255V8.22204H1.31739C1.04673 8.22204 0.78716 8.11452 0.595776 7.92314C0.404393 7.73176 0.296875 7.47219 0.296875 7.20153V3.79982C0.296875 3.34873 0.476072 2.91611 0.795044 2.59713C1.11402 2.27816 1.54663 2.09897 1.99773 2.09897H2.3379V1.75879ZM8.46098 1.75879C8.46098 1.66858 8.42514 1.58205 8.36134 1.51826C8.29755 1.45446 8.21103 1.41862 8.12081 1.41862H3.35841C3.26819 1.41862 3.18167 1.45446 3.11788 1.51826C3.05408 1.58205 3.01824 1.66858 3.01824 1.75879V2.09897H8.46098V1.75879ZM3.01824 6.52119V9.24255C3.01824 9.33277 3.05408 9.4193 3.11788 9.48309C3.18167 9.54689 3.26819 9.58273 3.35841 9.58273H8.12081C8.21103 9.58273 8.29755 9.54689 8.36134 9.48309C8.42514 9.4193 8.46098 9.33277 8.46098 9.24255V6.52119C8.46098 6.43097 8.42514 6.34444 8.36134 6.28065C8.29755 6.21686 8.21103 6.18102 8.12081 6.18102H3.35841C3.26819 6.18102 3.18167 6.21686 3.11788 6.28065C3.05408 6.34444 3.01824 6.43097 3.01824 6.52119Z" fill="#F35369"/>
</svg>
