<svg width="25" height="26" viewBox="0 0 25 26" fill="none" xmlns="http://www.w3.org/2000/svg">
<path d="M19.6147 16.8984H16.5805C16.371 16.8984 16.2012 17.0682 16.2012 17.2777V20.312C16.2012 20.5215 16.371 20.6913 16.5805 20.6913H19.6147C19.8242 20.6913 19.994 20.5215 19.994 20.312V17.2777C19.994 17.0682 19.8242 16.8984 19.6147 16.8984Z" fill="#F35369"/>
<path d="M15.823 13.8633H13.5473C13.3378 13.8633 13.168 14.0331 13.168 14.2426V16.5183C13.168 16.7277 13.3378 16.8976 13.5473 16.8976H15.823C16.0324 16.8976 16.2022 16.7277 16.2022 16.5183V14.2426C16.2022 14.0331 16.0324 13.8633 15.823 13.8633Z" fill="#F35369"/>
<path d="M22.6491 20.6914H20.3734C20.164 20.6914 19.9941 20.8612 19.9941 21.0707V23.3464C19.9941 23.5559 20.164 23.7257 20.3734 23.7257H22.6491C22.8586 23.7257 23.0284 23.5559 23.0284 23.3464V21.0707C23.0284 20.8612 22.8586 20.6914 22.6491 20.6914Z" fill="#F35369"/>
<path d="M22.6484 13.8633H21.1312C20.9218 13.8633 20.752 14.0331 20.752 14.2426V15.7597C20.752 15.9692 20.9218 16.139 21.1312 16.139H22.6484C22.8578 16.139 23.0277 15.9692 23.0277 15.7597V14.2426C23.0277 14.0331 22.8578 13.8633 22.6484 13.8633Z" fill="#F35369"/>
<path d="M15.0644 21.4492H13.5473C13.3378 21.4492 13.168 21.619 13.168 21.8285V23.3456C13.168 23.5551 13.3378 23.7249 13.5473 23.7249H15.0644C15.2739 23.7249 15.4437 23.5551 15.4437 23.3456V21.8285C15.4437 21.619 15.2739 21.4492 15.0644 21.4492Z" fill="#F35369"/>
<path d="M21.5118 2.48438H14.6847C14.2824 2.48438 13.8965 2.64422 13.612 2.92873C13.3274 3.21325 13.1676 3.59914 13.1676 4.00151V10.8286C13.1676 11.231 13.3274 11.6169 13.612 11.9014C13.8965 12.1859 14.2824 12.3458 14.6847 12.3458H21.5118C21.9142 12.3458 22.3001 12.1859 22.5846 11.9014C22.8691 11.6169 23.029 11.231 23.029 10.8286V4.00151C23.029 3.59914 22.8691 3.21325 22.5846 2.92873C22.3001 2.64422 21.9142 2.48438 21.5118 2.48438ZM19.9947 8.93221C19.9947 9.0328 19.9547 9.12927 19.8836 9.2004C19.8125 9.27153 19.716 9.31149 19.6154 9.31149H16.5812C16.4806 9.31149 16.3841 9.27153 16.313 9.2004C16.2418 9.12927 16.2019 9.0328 16.2019 8.93221V5.89793C16.2019 5.79734 16.2418 5.70087 16.313 5.62974C16.3841 5.55861 16.4806 5.51865 16.5812 5.51865H19.6154C19.716 5.51865 19.8125 5.55861 19.8836 5.62974C19.9547 5.70087 19.9947 5.79734 19.9947 5.89793V8.93221ZM10.1333 2.48438H3.3062C2.90383 2.48438 2.51794 2.64422 2.23342 2.92873C1.9489 3.21325 1.78906 3.59914 1.78906 4.00151V10.8286C1.78906 11.231 1.9489 11.6169 2.23342 11.9014C2.51794 12.1859 2.90383 12.3458 3.3062 12.3458H10.1333C10.5357 12.3458 10.9216 12.1859 11.2061 11.9014C11.4906 11.6169 11.6505 11.231 11.6505 10.8286V4.00151C11.6505 3.59914 11.4906 3.21325 11.2061 2.92873C10.9216 2.64422 10.5357 2.48438 10.1333 2.48438ZM8.61618 8.93221C8.61618 9.0328 8.57622 9.12927 8.50509 9.2004C8.43396 9.27153 8.33749 9.31149 8.2369 9.31149H5.20262C5.10203 9.31149 5.00556 9.27153 4.93443 9.2004C4.8633 9.12927 4.82334 9.0328 4.82334 8.93221V5.89793C4.82334 5.79734 4.8633 5.70087 4.93443 5.62974C5.00556 5.55861 5.10203 5.51865 5.20262 5.51865H8.2369C8.33749 5.51865 8.43396 5.55861 8.50509 5.62974C8.57622 5.70087 8.61618 5.79734 8.61618 5.89793V8.93221ZM10.1333 13.8629H3.3062C2.90383 13.8629 2.51794 14.0227 2.23342 14.3073C1.9489 14.5918 1.78906 14.9777 1.78906 15.38V22.2072C1.78906 22.6095 1.9489 22.9954 2.23342 23.2799C2.51794 23.5645 2.90383 23.7243 3.3062 23.7243H10.1333C10.5357 23.7243 10.9216 23.5645 11.2061 23.2799C11.4906 22.9954 11.6505 22.6095 11.6505 22.2072V15.38C11.6505 14.9777 11.4906 14.5918 11.2061 14.3073C10.9216 14.0227 10.5357 13.8629 10.1333 13.8629ZM8.61618 20.3107C8.61618 20.4113 8.57622 20.5078 8.50509 20.5789C8.43396 20.6501 8.33749 20.69 8.2369 20.69H5.20262C5.10203 20.69 5.00556 20.6501 4.93443 20.5789C4.8633 20.5078 4.82334 20.4113 4.82334 20.3107V17.2765C4.82334 17.1759 4.8633 17.0794 4.93443 17.0083C5.00556 16.9371 5.10203 16.8972 5.20262 16.8972H8.2369C8.33749 16.8972 8.43396 16.9371 8.50509 17.0083C8.57622 17.0794 8.61618 17.1759 8.61618 17.2765V20.3107Z" fill="#F35369"/>
</svg>
