<svg width="74" height="71" viewBox="0 0 74 71" fill="none" xmlns="http://www.w3.org/2000/svg">
<rect width="73" height="71" rx="35.5" transform="matrix(1 0 0 -1 0.5 71)" fill="#F35369" fill-opacity="0.08"/>
<g clip-path="url(#clip0_784_53754)">
<path d="M51.0624 18.7109C47.9218 18.8672 47.6249 18.9141 47.3124 19.3047C47.2265 19.4141 47.1171 19.6406 47.0702 19.8125C46.9296 20.3438 47.0702 20.5859 48.2265 21.7578C48.7968 22.3359 49.2656 22.8516 49.2656 22.8906C49.2656 22.9297 46.1093 26.1172 42.2577 29.9688L35.2421 36.9844L31.9609 33.7031C28.3515 30.1016 28.3281 30.0859 27.4296 30.0781C27.0937 30.0781 26.8593 30.1328 26.5937 30.2578C26.3359 30.3906 24.9999 31.6797 21.7421 34.9453C17.6796 39.0156 17.2421 39.4844 17.1249 39.8281C16.8515 40.6641 17.0546 41.3828 17.7577 42.0781C18.3749 42.6797 18.7577 42.8672 19.3749 42.8672C20.289 42.8672 20.2812 42.875 24.0468 39.1094L27.4687 35.7031L30.7734 38.9844C32.8124 41.0156 34.1796 42.3203 34.3593 42.3984C34.8202 42.6094 35.2812 42.6406 35.7968 42.4922L36.2577 42.3672L44.3984 34.2266L52.539 26.0938L53.664 27.1953C54.5859 28.1016 54.8437 28.3125 55.0859 28.3594C55.8046 28.4922 56.5077 27.9375 56.6406 27.1406C56.664 26.9922 56.7577 25.2266 56.8515 23.2188L57.0234 19.5781L56.8515 19.2344C56.5702 18.6484 56.289 18.5469 55.039 18.5547C54.4609 18.5625 52.6718 18.6328 51.0624 18.7109Z" fill="#363A60"/>
<path d="M49.5938 32.4766L46.6094 35.4609V43.75V52.0391L46.8125 52.25L47.0234 52.4531H49.8125H52.6016L52.8125 52.25L53.0156 52.0391V40.9766V29.9062L52.7969 29.6953L52.5781 29.4844L49.5938 32.4766Z" fill="#F35369"/>
<path d="M41.2188 40.8516C39.6484 42.4219 38.2031 43.8359 38 44L37.625 44.2812V48.125V51.9688L37.8281 52.2109L38.0312 52.4531H40.8359H43.6484L43.8359 52.2656C43.9375 52.1641 44.0391 51.9609 44.0703 51.8203C44.0938 51.6719 44.1016 48.5078 44.0938 44.7734L44.0703 38L41.2188 40.8516Z" fill="#F35369"/>
<path d="M28.6406 46.0469C28.6406 52.1406 28.6406 52.1641 29.0156 52.3672C29.125 52.4219 30.1094 52.4531 31.9453 52.4531H34.7188L34.9219 52.2109L35.125 51.9688L35.1094 48.4844L35.0859 44.9922L34.6562 44.9453C34.125 44.8906 33.7422 44.7656 33.1328 44.4609C32.7578 44.2734 32.2891 43.8594 30.7109 42.2891C29.6328 41.2188 28.7266 40.3438 28.6953 40.3438C28.6641 40.3438 28.6406 42.9141 28.6406 46.0469Z" fill="#F35369"/>
<path d="M24.0703 42.4375C22.6562 43.8359 21.9062 44.5312 21.6094 44.6953C21.1328 44.9531 20.5703 45.1484 20.0703 45.2266L19.7344 45.2812V48.6641V52.0391L19.9375 52.25L20.1484 52.4531H22.9531H25.7578L25.9453 52.25L26.1406 52.0391V46.2344C26.1406 43.0391 26.1328 40.4219 26.125 40.4219C26.1094 40.4219 25.1875 41.3281 24.0703 42.4375Z" fill="#F35369"/>
</g>
<defs>
<clipPath id="clip0_784_53754">
<rect width="40" height="40" fill="white" transform="translate(17 15.5)"/>
</clipPath>
</defs>
</svg>
