<svg width="52" height="40" viewBox="0 0 52 40" fill="none" xmlns="http://www.w3.org/2000/svg">
<path d="M21 26.25H20.9219C20.9219 25 21.0781 25.625 14.2812 12.1094C12.9531 9.375 8.96875 9.375 7.64062 12.1094C0.765625 25.7031 1 25.0781 1 26.25C1 29.7656 5.45312 32.5 11 32.5C16.4688 32.5 21 29.7656 21 26.25ZM11 13.75L16.625 25H5.375L11 13.75ZM50.9219 26.25C50.9219 25 51.0781 25.625 44.2812 12.1094C42.9531 9.375 38.9688 9.375 37.6406 12.1094C30.7656 25.7031 31 25.0781 31 26.25C31 29.7656 35.4531 32.5 41 32.5C46.4688 32.5 51 29.7656 51 26.25H50.9219ZM35.375 25L41 13.75L46.625 25H35.375ZM42.25 35H28.5V12.0312C30.2969 11.1719 31.7031 9.53125 32.0938 7.5H42.25C42.875 7.5 43.5 6.95312 43.5 6.25V3.75C43.5 3.125 42.875 2.5 42.25 2.5H30.9219C29.8281 1.01562 28.0312 0 26 0C23.8906 0 22.0938 1.01562 21 2.5H9.75C9.04688 2.5 8.5 3.125 8.5 3.75V6.25C8.5 6.95312 9.04688 7.5 9.75 7.5H19.8281C20.2188 9.53125 21.625 11.1719 23.5 12.0312V35H9.75C9.04688 35 8.5 35.625 8.5 36.25V38.75C8.5 39.4531 9.04688 40 9.75 40H42.25C42.875 40 43.5 39.4531 43.5 38.75V36.25C43.5 35.625 42.875 35 42.25 35Z" fill="url(#paint0_linear_979_39549)"/>
<defs>
<linearGradient id="paint0_linear_979_39549" x1="51" y1="-4.99999" x2="-9.19049" y2="16.5898" gradientUnits="userSpaceOnUse">
<stop stop-color="#414780"/>
<stop offset="1" stop-color="#54598B"/>
</linearGradient>
</defs>
</svg>
