<svg width="74" height="71" viewBox="0 0 74 71" fill="none" xmlns="http://www.w3.org/2000/svg">
<rect width="73" height="71" rx="35.5" transform="matrix(1 0 0 -1 0.5 71)" fill="#F35369" fill-opacity="0.08"/>
<path d="M37 39.5312C39.1746 39.5312 40.9375 37.7264 40.9375 35.5C40.9375 33.2736 39.1746 31.4688 37 31.4688C34.8254 31.4688 33.0625 33.2736 33.0625 35.5C33.0625 37.7264 34.8254 39.5312 37 39.5312Z" fill="#363A60"/>
<path d="M54.5867 39.1953L54.5482 39.1634L51.9593 37.0848C51.7953 36.952 51.6645 36.7813 51.5775 36.5867C51.4905 36.3921 51.4498 36.1791 51.4589 35.9653V34.9944C51.4506 34.7819 51.4918 34.5705 51.5789 34.3775C51.6661 34.1845 51.7967 34.0154 51.9601 33.8841L54.5482 31.8047L54.5867 31.7728C54.9859 31.4324 55.2537 30.9577 55.3424 30.4336C55.431 29.9096 55.3348 29.3703 55.0707 28.9123L51.5671 22.7058C51.5631 22.7 51.5595 22.6938 51.5565 22.6873C51.291 22.2356 50.8794 21.8934 50.3931 21.72C49.9069 21.5467 49.3767 21.5531 48.8946 21.7383L48.8659 21.7492L45.8225 23.0031C45.6304 23.0826 45.4226 23.1143 45.2162 23.0954C45.0099 23.0766 44.8108 23.0078 44.6355 22.8948C44.3664 22.7212 44.093 22.5572 43.8152 22.4026C43.6351 22.3026 43.4804 22.1607 43.3637 21.9883C43.247 21.8158 43.1715 21.6177 43.1434 21.4099L42.6848 18.085L42.675 18.0245C42.5751 17.5095 42.3052 17.0454 41.9105 16.7102C41.5159 16.3749 41.0205 16.189 40.5077 16.1836H33.4924C32.9724 16.1853 32.4696 16.3748 32.0727 16.7188C31.6758 17.0628 31.4102 17.5392 31.3227 18.064L31.3153 18.111L30.8584 21.4427C30.8303 21.6499 30.7554 21.8475 30.6397 22.0199C30.5239 22.1922 30.3704 22.3345 30.1914 22.4354C29.9128 22.589 29.6392 22.752 29.3711 22.9242C29.1961 23.0365 28.9976 23.1048 28.7918 23.1233C28.586 23.1419 28.3789 23.1102 28.1874 23.0308L25.1416 21.7711L25.1129 21.7593C24.6301 21.5739 24.0991 21.5677 23.6123 21.7417C23.1255 21.9157 22.7137 22.259 22.4485 22.7117L22.4379 22.7302L18.9294 28.9408C18.6649 29.3993 18.5684 29.9392 18.6571 30.4639C18.7458 30.9885 19.0138 31.4638 19.4134 31.8047L19.4519 31.8366L22.0408 33.9152C22.2048 34.048 22.3356 34.2187 22.4226 34.4133C22.5096 34.6079 22.5502 34.8209 22.5412 35.0347V36.0056C22.5494 36.2181 22.5083 36.4295 22.4211 36.6225C22.334 36.8155 22.2034 36.9846 22.04 37.1159L19.4519 39.1953L19.4134 39.2272C19.0142 39.5676 18.7464 40.0423 18.6577 40.5664C18.569 41.0904 18.6653 41.6297 18.9294 42.0877L22.4329 48.2942C22.437 48.3 22.4405 48.3062 22.4436 48.3127C22.7091 48.7644 23.1207 49.1066 23.6069 49.28C24.0932 49.4533 24.6234 49.4469 25.1055 49.2617L25.1342 49.2508L28.1751 47.9969C28.3672 47.9174 28.575 47.8857 28.7814 47.9046C28.9877 47.9234 29.1868 47.9922 29.3621 48.1052C29.6312 48.2793 29.9046 48.4434 30.1824 48.5974C30.3625 48.6974 30.5172 48.8393 30.6339 49.0117C30.7506 49.1842 30.8261 49.3823 30.8543 49.5901L31.3104 52.915L31.3202 52.9755C31.4202 53.4913 31.6908 53.9561 32.0865 54.2914C32.4822 54.6268 32.9787 54.8122 33.4924 54.8164H40.5077C41.0277 54.8147 41.5305 54.6252 41.9274 54.2812C42.3243 53.9372 42.5899 53.4608 42.6774 52.936L42.6848 52.889L43.1417 49.5573C43.1702 49.3497 43.2457 49.1518 43.3622 48.9795C43.4787 48.8071 43.633 48.665 43.8127 48.5646C44.0933 48.4101 44.3673 48.2463 44.633 48.0758C44.808 47.9635 45.0066 47.8952 45.2124 47.8767C45.4181 47.8581 45.6253 47.8898 45.8168 47.9692L48.8626 49.2247L48.8913 49.2365C49.374 49.4222 49.9051 49.4286 50.392 49.2546C50.8789 49.0805 51.2907 48.7371 51.5557 48.2841C51.5589 48.2778 51.5625 48.2716 51.5663 48.2656L55.0699 42.06C55.3348 41.6016 55.4317 41.0616 55.3431 40.5366C55.2546 40.0117 54.9865 39.5362 54.5867 39.1953ZM43.5552 35.8158C43.4954 37.1163 43.0679 38.3711 42.3245 39.4275C41.5811 40.4839 40.554 41.2964 39.3679 41.7663C38.1819 42.2361 36.8881 42.343 35.6438 42.0739C34.3995 41.8049 33.2584 41.1715 32.3592 40.2508C31.46 39.3301 30.8415 38.1617 30.5789 36.8878C30.3162 35.6138 30.4208 34.2892 30.8798 33.075C31.3389 31.8608 32.1326 30.8093 33.1645 30.0483C34.1965 29.2874 35.4221 28.8498 36.6924 28.7888C37.6044 28.7477 38.5148 28.9013 39.3656 29.2399C40.2165 29.5785 40.9892 30.0947 41.6347 30.7556C42.2801 31.4165 42.7842 32.2077 43.1148 33.0789C43.4455 33.95 43.5954 34.8821 43.5552 35.8158Z" fill="#F35369"/>
</svg>
