<svg width="16" height="17" viewBox="0 0 16 17" fill="none" xmlns="http://www.w3.org/2000/svg">
<path d="M15.2578 10.375L13.9141 9.625C14.0703 8.875 14.0703 8.15625 13.9141 7.40625L15.2578 6.65625C15.4141 6.5625 15.4766 6.375 15.4141 6.21875C15.0703 5.09375 14.4766 4.09375 13.7266 3.25C13.6016 3.125 13.4141 3.09375 13.2578 3.1875L11.9141 3.9375C11.3516 3.46875 10.7266 3.09375 10.0391 2.84375V1.3125C10.0391 1.15625 9.91406 1 9.72656 0.96875C8.57031 0.6875 7.41406 0.71875 6.32031 0.96875C6.13281 1 6.03906 1.15625 6.03906 1.3125V2.84375C5.32031 3.09375 4.69531 3.46875 4.13281 3.96875L2.78906 3.1875C2.63281 3.09375 2.44531 3.125 2.32031 3.25C1.57031 4.09375 0.976562 5.09375 0.632812 6.21875C0.570312 6.375 0.632812 6.5625 0.789062 6.65625L2.13281 7.40625C2.00781 8.15625 2.00781 8.875 2.13281 9.625L0.789062 10.375C0.632812 10.4688 0.570312 10.6562 0.632812 10.8125C0.976562 11.9375 1.57031 12.9375 2.32031 13.7812C2.44531 13.9062 2.63281 13.9375 2.78906 13.8438L4.13281 13.0938C4.69531 13.5625 5.32031 13.9375 6.03906 14.1875V15.7188C6.03906 15.875 6.16406 16.0312 6.32031 16.0938C7.47656 16.3438 8.63281 16.3125 9.72656 16.0938C9.91406 16.0312 10.0391 15.875 10.0391 15.7188V14.1875C10.7266 13.9375 11.3516 13.5625 11.9141 13.0938L13.2578 13.8438C13.4141 13.9375 13.6016 13.9062 13.7266 13.7812C14.5078 12.9375 15.0703 11.9375 15.4453 10.8125C15.4766 10.6562 15.4141 10.4688 15.2578 10.375ZM8.03906 11C6.63281 11 5.53906 9.90625 5.53906 8.5C5.53906 7.125 6.63281 6 8.03906 6C9.41406 6 10.5391 7.125 10.5391 8.5C10.5391 9.90625 9.41406 11 8.03906 11Z" fill="#27BCFE"/>
</svg>
