<svg width="74" height="71" viewBox="0 0 74 71" fill="none" xmlns="http://www.w3.org/2000/svg">
<rect width="73" height="71" rx="35.5" transform="matrix(1 0 0 -1 0.832031 71)" fill="#F35369" fill-opacity="0.08"/>
<g clip-path="url(#clip0_507_32775)">
<path d="M24.5894 15.7451C23.8511 15.8945 22.5767 16.5361 21.9087 17.0723C20.4849 18.2236 19.6236 19.9287 19.5181 21.8008C19.4478 23.0225 19.6324 23.9014 20.2124 25.0967C20.5992 25.8965 20.7574 26.1074 21.4605 26.8105C22.1285 27.4785 22.3921 27.6807 23.0953 28.0234C24.1587 28.542 24.9146 28.7266 26.0396 28.7266C27.2349 28.7266 28.3423 28.4541 29.2124 27.9531C29.5552 27.751 29.5816 27.707 29.7749 26.9688C30.1617 25.4746 31.146 23.8311 32.2095 22.9258L32.7017 22.5039L32.649 21.7129C32.5259 19.9111 31.6558 18.2061 30.2583 17.0723C29.5816 16.5186 28.3247 15.9033 27.5337 15.7363C26.7691 15.5781 25.3453 15.5781 24.5894 15.7451Z" fill="#F35369"/>
<path d="M47.0879 15.7363C46.3408 15.9033 45.0752 16.5361 44.4072 17.0723C43.0889 18.1445 42.2012 19.7969 42.0254 21.5371L41.9727 22.0732L42.3506 22.3281C44.0293 23.4268 45.4443 25.7031 45.7256 27.707C45.7783 28.1289 45.8047 28.1641 46.1475 28.2959C46.9648 28.6035 47.668 28.7266 48.582 28.7266C49.751 28.7266 50.4893 28.5508 51.5703 28.0234C52.2734 27.6807 52.5371 27.4785 53.2051 26.8105C53.9082 26.1074 54.0664 25.8965 54.4531 25.0967C55.0332 23.9014 55.2178 23.0225 55.1475 21.8008C54.9893 19.0059 53.1436 16.6768 50.4189 15.8242C49.7598 15.6133 47.8525 15.5605 47.0879 15.7363Z" fill="#F35369"/>
<path d="M36.5684 22.4593C34.9512 22.7493 33.4307 23.6722 32.4551 24.9642C31.9014 25.7025 31.6201 26.2386 31.3389 27.1175C31.1719 27.68 31.1367 27.9612 31.1367 29.0071C31.1367 30.3607 31.2598 30.8792 31.8135 31.9778C33.6943 35.7044 38.6865 36.7327 41.8682 34.0433C44.3027 31.9866 44.9443 28.682 43.459 25.8431C43.1865 25.3157 42.8877 24.9378 42.2988 24.3489C41.4111 23.4612 40.5762 22.9603 39.4424 22.6351C38.6865 22.4241 37.2715 22.3362 36.5684 22.4593Z" fill="#363A60"/>
<path d="M21.5913 30.4043C18.2603 31.1074 15.6939 33.7002 15.0083 37.0576C14.8413 37.8926 14.8325 38.209 14.8501 41.7949L14.8765 45.6357L16.1948 46.0137C17.6714 46.4443 19.8775 46.9365 21.2046 47.1475C22.0835 47.2881 24.2896 47.543 24.6411 47.543C24.8257 47.543 24.8345 47.5078 24.8784 45.7148C24.9136 44.124 24.9488 43.7812 25.1509 43.0166C25.5904 41.3379 26.6626 39.501 27.9019 38.2969C28.8687 37.3564 30.521 36.3457 31.6021 36.0205C31.8042 35.959 31.9712 35.8887 31.9712 35.8535C31.9712 35.8271 31.8482 35.6865 31.6988 35.5371C30.6529 34.5439 29.7212 32.4961 29.5454 30.791L29.4839 30.2285L25.9156 30.2373C22.8218 30.2373 22.2505 30.2637 21.5913 30.4043Z" fill="#F35369"/>
<path d="M45.8232 30.4229C45.7968 30.5371 45.7528 30.8447 45.7265 31.1084C45.5771 32.4356 44.8915 34.0088 43.9599 35.1602C43.6435 35.5557 43.3974 35.8809 43.4149 35.8985C43.4325 35.9072 43.6698 36.0039 43.9423 36.1006C46.2978 36.9707 48.2665 38.7461 49.4179 41.0401C50.1825 42.5694 50.411 43.6152 50.4901 45.9356C50.5429 47.5967 50.5429 47.6319 50.7274 47.5879C50.8329 47.5703 51.3075 47.5264 51.7909 47.5C54.3749 47.333 57.3368 46.6563 59.1562 45.8125L59.8329 45.4961V41.7168C59.8329 38.2627 59.8153 37.876 59.6483 37.0586C58.9716 33.6748 56.3964 31.0908 53.0302 30.3965C52.3358 30.2559 51.8173 30.2295 49.0487 30.2295H45.8583L45.8232 30.4229Z" fill="#F35369"/>
<path d="M33.9668 37.0927C31.8398 37.3125 29.748 38.4375 28.377 40.0898C27.7354 40.8545 26.9443 42.3838 26.6807 43.3681C26.4961 44.0361 26.4873 44.2734 26.4521 48.2549L26.4258 52.4384L27.5068 52.7549C29.8096 53.4316 31.752 53.8447 33.9053 54.1347C35.6543 54.372 39.5039 54.4687 41.0596 54.3193C43.9688 54.0293 46.4736 53.4404 48.2139 52.6318L48.9521 52.289L48.9082 48.3164C48.8643 43.8867 48.8379 43.667 48.2578 42.2695C47.0273 39.3427 44.3906 37.4091 41.209 37.084C40.1631 36.9785 34.9775 36.9873 33.9668 37.0927Z" fill="#363A60"/>
</g>
<defs>
<clipPath id="clip0_507_32775">
<rect width="45" height="45" fill="white" transform="translate(14.832 13)"/>
</clipPath>
</defs>
</svg>
