<svg width="20" height="20" viewBox="0 0 20 20" fill="none" xmlns="http://www.w3.org/2000/svg">
<path d="M15.5614 19.5358C15.3993 19.5354 15.2397 19.4956 15.0964 19.4198L9.9994 16.7398L4.9024 19.4198C4.73736 19.5063 4.55145 19.5449 4.36563 19.5313C4.17981 19.5178 4.00147 19.4526 3.85071 19.3431C3.69996 19.2337 3.58278 19.0842 3.51241 18.9117C3.44203 18.7392 3.42125 18.5505 3.4524 18.3668L4.4254 12.6908L0.301398 8.67079C0.167988 8.54053 0.0736517 8.37557 0.0290423 8.19453C-0.0155671 8.01349 -0.00867329 7.82358 0.0489455 7.64625C0.106564 7.46892 0.212613 7.31124 0.355117 7.191C0.49762 7.07075 0.670903 6.99275 0.855398 6.96579L6.5544 6.13779L9.1034 0.973787C9.19522 0.817628 9.32624 0.688162 9.48349 0.598209C9.64073 0.508257 9.81874 0.460938 9.9999 0.460938C10.1811 0.460938 10.3591 0.508257 10.5163 0.598209C10.6736 0.688162 10.8046 0.817628 10.8964 0.973787L13.4444 6.13779L19.1434 6.96579C19.3279 6.99275 19.5012 7.07075 19.6437 7.191C19.7862 7.31124 19.8922 7.46892 19.9499 7.64625C20.0075 7.82358 20.0144 8.01349 19.9698 8.19453C19.9251 8.37557 19.8308 8.54053 19.6974 8.67079L15.5734 12.6908L16.5474 18.3668C16.572 18.5103 16.565 18.6574 16.5268 18.7979C16.4887 18.9384 16.4203 19.0688 16.3265 19.1801C16.2327 19.2915 16.1157 19.381 15.9838 19.4424C15.8518 19.5038 15.708 19.5357 15.5624 19.5358H15.5614Z" fill="#363A60"/>
</svg>
