<svg width="52" height="36" viewBox="0 0 52 36" fill="none" xmlns="http://www.w3.org/2000/svg">
<path d="M34.2031 18C32.875 18 31.625 17.2969 31 16.2031L26 7.84375L20.9219 16.2031C20.2969 17.375 19.0469 18.0781 17.7188 18.0781C17.3281 18.0781 17.0156 18 16.7031 17.9219L6 14.7969V28.7031C6 29.875 6.78125 30.8906 7.875 31.125L24.75 35.4219C25.5312 35.5781 26.3906 35.5781 27.1719 35.4219L44.0469 31.125C45.2188 30.8906 46 29.875 46 28.7031V14.7969L35.2969 17.9219C34.9062 18 34.5938 18 34.2031 18ZM50.8438 9.25L46.7812 1.20312C46.5469 0.734375 46.0781 0.5 45.5312 0.578125L26 3L33.1094 14.9531C33.4219 15.4219 34.0469 15.6562 34.5938 15.5L50.0625 11.0469C50.8438 10.8125 51.1562 9.95312 50.8438 9.25ZM5.14062 1.20312L1.07812 9.25C0.765625 9.95312 1.15625 10.8125 1.85938 11.0469L17.3281 15.5C17.875 15.6562 18.5 15.4219 18.8125 14.875L26 3L6.39062 0.578125C5.84375 0.5 5.375 0.734375 5.14062 1.20312Z" fill="url(#paint0_linear_1007_40548)"/>
<defs>
<linearGradient id="paint0_linear_1007_40548" x1="51" y1="-6.99999" x2="-9.19049" y2="14.5898" gradientUnits="userSpaceOnUse">
<stop stop-color="#414780"/>
<stop offset="1" stop-color="#54598B"/>
</linearGradient>
</defs>
</svg>
