<svg width="58" height="57" viewBox="0 0 58 57" fill="none" xmlns="http://www.w3.org/2000/svg">
<g clip-path="url(#clip0_698_38419)">
<path d="M56.7729 18.4067L47.8667 6.15687C47.5105 5.70187 46.9761 5.42188 46.4061 5.42188H10.7814C10.2114 5.42188 9.67708 5.70187 9.32083 6.15687L0.414666 18.4067C0.307792 18.7217 0.200918 19.0367 0.094044 19.3517C0.0584194 23.2367 3.26464 26.4217 7.21897 26.4217C9.35645 26.4217 11.2446 25.5117 12.5627 24.0417C13.8808 25.5117 15.7689 26.4217 17.9064 26.4217C20.0438 26.4217 21.932 25.5117 23.2501 24.0417C24.5682 25.5117 26.4563 26.4217 28.5938 26.4217C30.7312 26.4217 32.6194 25.5117 33.9375 24.0417C35.2556 25.5117 37.1437 26.4217 39.2812 26.4217C41.4186 26.4217 43.3067 25.5117 44.6249 24.0417C45.943 25.5117 47.8311 26.4217 49.9686 26.4217C53.9229 26.4217 57.1291 23.2367 57.0935 19.3517C56.9866 19.0367 56.8797 18.7217 56.7729 18.4067Z" fill="#F35369"/>
<path d="M49.9683 29.9218C48.0766 29.9218 46.2348 29.4248 44.6246 28.5078C41.4041 30.3383 37.1577 30.3383 33.9372 28.5078C30.7167 30.3383 26.4667 30.3383 23.2498 28.5078C20.0329 30.3383 15.7793 30.3383 12.5624 28.5078C9.887 30.0338 6.57391 30.2298 3.65625 29.2393V47.4216C3.65625 49.3536 5.25223 50.9216 7.21872 50.9216H35.7184V33.4218H46.4058V50.9216H49.9683C51.9348 50.9216 53.5308 49.3536 53.5308 47.4216V29.2813C52.3979 29.6768 51.2045 29.9218 49.9683 29.9218ZM25.031 43.9217H10.7812V33.4218H25.031V43.9217Z" fill="#363A60"/>
</g>
<defs>
<clipPath id="clip0_698_38419">
<rect width="57" height="56" fill="white" transform="translate(0.296875 0.210938)"/>
</clipPath>
</defs>
</svg>
