<svg width="161" height="162" viewBox="0 0 161 162" fill="none" xmlns="http://www.w3.org/2000/svg">
<ellipse cx="80.5" cy="80.8455" rx="80.5" ry="80.3455" fill="#61DB92" fill-opacity="0.05"/>
<ellipse cx="80.5" cy="80.8449" rx="62.5" ry="62.38" fill="#61DB92" fill-opacity="0.16"/>
<path d="M131 81.347C131 91.2171 128.067 100.865 122.573 109.072C117.078 117.278 109.269 123.675 100.133 127.451C90.9962 131.228 80.9429 132.216 71.2439 130.29C61.5449 128.364 52.6359 123.611 45.6435 116.632C38.6511 109.652 33.8894 100.76 31.9604 91.0796C30.0315 81.3991 31.022 71.3651 34.8067 62.2465C38.5913 53.1279 45.0002 45.3341 53.2228 39.8509C61.4455 34.3676 71.1126 31.4411 81.0016 31.4414C87.5677 31.4416 94.0695 32.7326 100.136 35.2407C106.202 37.7489 111.714 41.4249 116.356 46.0591C120.999 50.6933 124.682 56.1948 127.195 62.2495C129.707 68.3042 131 74.7936 131 81.347ZM75.2218 107.762L112.311 70.7439C112.612 70.4451 112.85 70.0902 113.012 69.6994C113.175 69.3086 113.258 68.8896 113.258 68.4665C113.258 68.0434 113.175 67.6244 113.012 67.2336C112.85 66.8428 112.612 66.4879 112.311 66.1891L107.748 61.6676C107.449 61.3682 107.094 61.1306 106.703 60.9685C106.312 60.8064 105.893 60.723 105.469 60.723C105.046 60.723 104.627 60.8064 104.236 60.9685C103.845 61.1306 103.49 61.3682 103.191 61.6676L72.9403 91.8605L58.8157 77.7298C58.2094 77.128 57.389 76.7902 56.5339 76.7902C55.6788 76.7902 54.8585 77.128 54.2522 77.7298L49.6886 82.3114C49.0857 82.9166 48.7472 83.7354 48.7472 84.5888C48.7472 85.4423 49.0857 86.261 49.6886 86.8662L70.6593 107.789C70.9587 108.089 71.3143 108.326 71.7058 108.489C72.0974 108.651 72.5171 108.734 72.9411 108.734C73.365 108.734 73.7848 108.651 74.1763 108.489C74.5679 108.326 74.9235 108.089 75.2229 107.789L75.2218 107.762Z" fill="#61DB92"/>
</svg>
