<svg width="30" height="40" viewBox="0 0 30 40" fill="none" xmlns="http://www.w3.org/2000/svg">
<path d="M17.5 10.625V0H1.875C0.78125 0 0 0.859375 0 1.875V38.125C0 39.2188 0.78125 40 1.875 40H28.125C29.1406 40 30 39.2188 30 38.125V12.5H19.375C18.2812 12.5 17.5 11.7188 17.5 10.625ZM22.5 29.0625C22.5 29.6094 22.0312 30 21.5625 30H8.4375C7.89062 30 7.5 29.6094 7.5 29.0625V28.4375C7.5 27.9688 7.89062 27.5 8.4375 27.5H21.5625C22.0312 27.5 22.5 27.9688 22.5 28.4375V29.0625ZM22.5 24.0625C22.5 24.6094 22.0312 25 21.5625 25H8.4375C7.89062 25 7.5 24.6094 7.5 24.0625V23.4375C7.5 22.9688 7.89062 22.5 8.4375 22.5H21.5625C22.0312 22.5 22.5 22.9688 22.5 23.4375V24.0625ZM22.5 18.4375V19.0625C22.5 19.6094 22.0312 20 21.5625 20H8.4375C7.89062 20 7.5 19.6094 7.5 19.0625V18.4375C7.5 17.9688 7.89062 17.5 8.4375 17.5H21.5625C22.0312 17.5 22.5 17.9688 22.5 18.4375ZM30 9.53125C30 9.0625 29.7656 8.59375 29.4531 8.20312L21.7969 0.546875C21.4062 0.234375 20.9375 0 20.4688 0H20V10H30V9.53125Z" fill="url(#paint0_linear_1007_40526)"/>
<defs>
<linearGradient id="paint0_linear_1007_40526" x1="50" y1="-4.99999" x2="-10.1905" y2="16.5898" gradientUnits="userSpaceOnUse">
<stop stop-color="#414780"/>
<stop offset="1" stop-color="#54598B"/>
</linearGradient>
</defs>
</svg>
