<svg width="19" height="13" viewBox="0 0 19 13" fill="none" xmlns="http://www.w3.org/2000/svg">
<path d="M4.01953 3.5V9.5H14.0195V3.5H4.01953ZM16.5195 6.5C16.5195 5.6875 17.1758 5 18.0195 5V2C18.0195 1.1875 17.332 0.5 16.5195 0.5H1.51953C0.675781 0.5 0.0195312 1.1875 0.0195312 2V5C0.832031 5 1.51953 5.6875 1.51953 6.5C1.51953 7.34375 0.832031 8 0.0195312 8V11C0.0195312 11.8438 0.675781 12.5 1.51953 12.5H16.5195C17.332 12.5 18.0195 11.8438 18.0195 11V8C17.1758 8 16.5195 7.34375 16.5195 6.5ZM15.0195 3.25V9.75C15.0195 10.1875 14.6758 10.5 14.2695 10.5H3.76953C3.33203 10.5 3.01953 10.1875 3.01953 9.75V3.25C3.01953 2.84375 3.33203 2.5 3.76953 2.5H14.2695C14.6758 2.5 15.0195 2.84375 15.0195 3.25Z" fill="#27BCFE"/>
</svg>
