<svg width="18" height="15" viewBox="0 0 18 15" fill="none" xmlns="http://www.w3.org/2000/svg">
<path d="M17.0769 10.3601C17.1584 9.97967 17.1584 9.57204 17.0769 9.19159L17.7835 8.78396C17.865 8.75678 17.8922 8.64808 17.865 8.56656C17.6748 7.9687 17.3758 7.45237 16.9682 6.99039C16.9139 6.93604 16.8052 6.90886 16.7236 6.96322L16.0171 7.37084C15.7182 7.12627 15.392 6.90886 15.0116 6.80016V5.98491C15.0116 5.8762 14.9572 5.79468 14.8757 5.79468C14.2507 5.6588 13.6528 5.6588 13.055 5.79468C12.9734 5.79468 12.9191 5.8762 12.9191 5.98491V6.80016C12.5386 6.90886 12.2125 7.12627 11.9136 7.37084L11.2071 6.96322C11.1255 6.90886 11.0168 6.93604 10.9625 6.99039C10.5548 7.45237 10.2287 7.9687 10.0657 8.56656C10.0385 8.64808 10.0657 8.75678 10.1472 8.78396L10.8538 9.19159C10.7723 9.57204 10.7723 9.97967 10.8538 10.3601L10.1472 10.7678C10.0657 10.7949 10.0385 10.9036 10.0657 10.9852C10.2287 11.583 10.5548 12.0993 10.9625 12.5613C11.0168 12.6157 11.1255 12.6428 11.2071 12.5885L11.9136 12.1809C12.2125 12.4254 12.5386 12.6428 12.9191 12.7515V13.5668C12.9191 13.6755 12.9734 13.757 13.055 13.757C13.68 13.8929 14.2779 13.8929 14.8757 13.757C14.9572 13.757 15.0116 13.6755 15.0116 13.5668V12.7515C15.392 12.6428 15.7182 12.4254 16.0171 12.1809L16.7236 12.5885C16.8052 12.6428 16.9139 12.6157 16.9682 12.5613C17.3758 12.0993 17.6748 11.583 17.865 10.9852C17.8922 10.9036 17.865 10.7949 17.7835 10.7678L17.0769 10.3601ZM13.9789 11.0939C13.2452 11.0939 12.6473 10.496 12.6473 9.76227C12.6473 9.05571 13.2452 8.45785 13.9789 8.45785C14.6855 8.45785 15.2833 9.05571 15.2833 9.76227C15.2833 10.496 14.6855 11.0939 13.9789 11.0939ZM6.58726 7.15344C8.48953 7.15344 10.0657 5.60445 10.0657 3.67501C10.0657 1.77274 8.48953 0.196573 6.58726 0.196573C4.65782 0.196573 3.10883 1.77274 3.10883 3.67501C3.10883 5.60445 4.65782 7.15344 6.58726 7.15344ZM12.0495 13.3222C11.968 13.2951 11.9136 13.2407 11.8593 13.2135L11.6419 13.3494C11.4788 13.4309 11.2886 13.4853 11.0984 13.4853C10.8266 13.4853 10.5277 13.3494 10.3374 13.132C9.82112 12.6157 9.44066 11.9363 9.22326 11.2569C9.08739 10.7678 9.27761 10.2514 9.71242 10.0068L9.92982 9.87097C9.92982 9.81662 9.92982 9.73509 9.92982 9.68074L9.71242 9.54487C9.27761 9.30029 9.08739 8.78396 9.22326 8.2948C9.25044 8.21328 9.30479 8.15893 9.33196 8.0774C9.22326 8.05023 9.11456 8.02305 9.00586 8.02305H8.54388C7.94602 8.32198 7.29382 8.45785 6.58726 8.45785C5.8807 8.45785 5.20132 8.32198 4.60347 8.02305H4.14149C2.13052 8.02305 0.5 9.68074 0.5 11.6917V12.8059C0.5 13.5396 1.07068 14.1103 1.80441 14.1103H11.3701C11.6419 14.1103 11.8864 14.0288 12.1038 13.8929C12.0767 13.7842 12.0495 13.6755 12.0495 13.5668V13.3222Z" fill="#F35369"/>
</svg>
