<svg width="31" height="22" viewBox="0 0 31 22" fill="none" xmlns="http://www.w3.org/2000/svg">
<path d="M20.4219 10.5C19.625 10.5 18.875 10.0781 18.5 9.42188L15.5 4.40625L12.4531 9.42188C12.0781 10.125 11.3281 10.5469 10.5312 10.5469C10.2969 10.5469 10.1094 10.5 9.92188 10.4531L3.5 8.57812V16.9219C3.5 17.625 3.96875 18.2344 4.625 18.375L14.75 20.9531C15.2188 21.0469 15.7344 21.0469 16.2031 20.9531L26.3281 18.375C27.0312 18.2344 27.5 17.625 27.5 16.9219V8.57812L21.0781 10.4531C20.8438 10.5 20.6562 10.5 20.4219 10.5ZM30.4062 5.25L27.9688 0.421875C27.8281 0.140625 27.5469 0 27.2188 0.046875L15.5 1.5L19.7656 8.67188C19.9531 8.95312 20.3281 9.09375 20.6562 9L29.9375 6.32812C30.4062 6.1875 30.5938 5.67188 30.4062 5.25ZM2.98438 0.421875L0.546875 5.25C0.359375 5.67188 0.59375 6.1875 1.01562 6.32812L10.2969 9C10.625 9.09375 11 8.95312 11.1875 8.625L15.5 1.5L3.73438 0.046875C3.40625 0 3.125 0.140625 2.98438 0.421875Z" fill="#1978A2"/>
</svg>
