<svg width="32" height="22" viewBox="0 0 32 22" fill="none" xmlns="http://www.w3.org/2000/svg">
<path d="M20.9219 11C20.125 11 19.375 10.5781 19 9.92188L16 4.90625L12.9531 9.92188C12.5781 10.625 11.8281 11.0469 11.0312 11.0469C10.7969 11.0469 10.6094 11 10.4219 10.9531L4 9.07812V17.4219C4 18.125 4.46875 18.7344 5.125 18.875L15.25 21.4531C15.7188 21.5469 16.2344 21.5469 16.7031 21.4531L26.8281 18.875C27.5312 18.7344 28 18.125 28 17.4219V9.07812L21.5781 10.9531C21.3438 11 21.1562 11 20.9219 11ZM30.9062 5.75L28.4688 0.921875C28.3281 0.640625 28.0469 0.5 27.7188 0.546875L16 2L20.2656 9.17188C20.4531 9.45312 20.8281 9.59375 21.1562 9.5L30.4375 6.82812C30.9062 6.6875 31.0938 6.17188 30.9062 5.75ZM3.48438 0.921875L1.04688 5.75C0.859375 6.17188 1.09375 6.6875 1.51562 6.82812L10.7969 9.5C11.125 9.59375 11.5 9.45312 11.6875 9.125L16 2L4.23438 0.546875C3.90625 0.5 3.625 0.640625 3.48438 0.921875Z" fill="#363A60"/>
</svg>
