<svg width="16" height="16" viewBox="0 0 16 16" fill="none" xmlns="http://www.w3.org/2000/svg">
<path d="M0 12.6875V14C0 15.125 2.6875 16 6 16C9.3125 16 12 15.125 12 14V12.6875C10.6875 13.5938 8.34375 14 6 14C3.625 14 1.28125 13.5938 0 12.6875ZM10 4C13.3125 4 16 3.125 16 2C16 0.90625 13.3125 0 10 0C6.6875 0 4 0.90625 4 2C4 3.125 6.6875 4 10 4ZM0 9.40625V11C0 12.125 2.6875 13 6 13C9.3125 13 12 12.125 12 11V9.40625C10.6875 10.4688 8.34375 11 6 11C3.625 11 1.28125 10.4688 0 9.40625ZM13 9.75C14.7812 9.40625 16 8.75 16 8V6.6875C15.25 7.1875 14.1875 7.53125 13 7.75V9.75ZM6 5C2.6875 5 0 6.125 0 7.5C0 8.90625 2.6875 10 6 10C9.3125 10 12 8.90625 12 7.5C12 6.125 9.3125 5 6 5ZM12.8438 6.78125C14.7188 6.4375 16 5.78125 16 5V3.6875C14.875 4.46875 12.9688 4.875 10.9688 5C11.875 5.4375 12.5625 6.03125 12.8438 6.78125Z" fill="#363A60"/>
</svg>
