<svg width="18" height="17" viewBox="0 0 18 17" fill="none" xmlns="http://www.w3.org/2000/svg">
<path d="M16.4688 9H9.0625L14 13.9688C14.1875 14.1562 14.5 14.1562 14.6875 13.9688C15.9062 12.8438 16.75 11.3125 16.9688 9.5625C17.0312 9.28125 16.7812 9 16.4688 9ZM15.9688 7C15.7188 3.25 12.75 0.28125 9 0.03125C8.71875 0 8.5 0.25 8.5 0.53125V7.5H15.4688C15.75 7.5 16 7.28125 15.9688 7ZM7 9V1.59375C7 1.3125 6.71875 1.0625 6.4375 1.09375C2.6875 1.625 -0.15625 4.875 0 8.78125C0.125 12.7812 3.5625 16.0625 7.59375 16C9.15625 16 10.625 15.5 11.8125 14.625C12.0625 14.4688 12.0625 14.0938 11.8438 13.875L7 9Z" fill="#363A60"/>
</svg>
