<svg width="21" height="15" viewBox="0 0 21 15" fill="none" xmlns="http://www.w3.org/2000/svg">
<path d="M13.2812 7C12.75 7 12.25 6.71875 12 6.28125L10 2.9375L7.96875 6.28125C7.71875 6.75 7.21875 7.03125 6.6875 7.03125C6.53125 7.03125 6.40625 7 6.28125 6.96875L2 5.71875V11.2812C2 11.75 2.3125 12.1562 2.75 12.25L9.5 13.9688C9.8125 14.0312 10.1562 14.0312 10.4688 13.9688L17.2188 12.25C17.6875 12.1562 18 11.75 18 11.2812V5.71875L13.7188 6.96875C13.5625 7 13.4375 7 13.2812 7ZM19.9375 3.5L18.3125 0.28125C18.2188 0.09375 18.0312 0 17.8125 0.03125L10 1L12.8438 5.78125C12.9688 5.96875 13.2188 6.0625 13.4375 6L19.625 4.21875C19.9375 4.125 20.0625 3.78125 19.9375 3.5ZM1.65625 0.28125L0.03125 3.5C-0.09375 3.78125 0.0625 4.125 0.34375 4.21875L6.53125 6C6.75 6.0625 7 5.96875 7.125 5.75L10 1L2.15625 0.03125C1.9375 0 1.75 0.09375 1.65625 0.28125Z" fill="#363A60"/>
</svg>
