<svg width="12" height="16" viewBox="0 0 12 16" fill="none" xmlns="http://www.w3.org/2000/svg">
<path d="M11.7812 3.28125L8.71875 0.21875C8.5625 0.09375 8.375 0 8.1875 0H8V4H12V3.8125C12 3.625 11.9062 3.4375 11.7812 3.28125ZM7 4.25V0H0.75C0.3125 0 0 0.34375 0 0.75V15.25C0 15.6875 0.3125 16 0.75 16H11.25C11.6562 16 12 15.6875 12 15.25V5H7.75C7.3125 5 7 4.6875 7 4.25ZM2 2.25C2 2.125 2.09375 2 2.25 2H4.75C4.875 2 5 2.125 5 2.25V2.75C5 2.90625 4.875 3 4.75 3H2.25C2.09375 3 2 2.90625 2 2.75V2.25ZM2 4.75V4.25C2 4.125 2.09375 4 2.25 4H4.75C4.875 4 5 4.125 5 4.25V4.75C5 4.90625 4.875 5 4.75 5H2.25C2.09375 5 2 4.90625 2 4.75ZM6.5 13V13.75C6.5 13.9062 6.375 14 6.25 14H5.75C5.59375 14 5.5 13.9062 5.5 13.75V13C5.125 13 4.78125 12.875 4.5 12.6562C4.375 12.5625 4.375 12.375 4.5 12.2812L4.84375 11.9375C4.9375 11.8438 5.0625 11.8438 5.15625 11.9062C5.28125 11.9688 5.4375 12 5.5625 12H6.4375C6.65625 12 6.8125 11.8438 6.8125 11.5938C6.8125 11.4062 6.71875 11.25 6.53125 11.2188L5.125 10.7812C4.5625 10.5938 4.15625 10.0625 4.15625 9.4375C4.15625 8.65625 4.75 8.03125 5.46875 8.03125V7.25C5.46875 7.125 5.59375 7 5.71875 7H6.21875C6.375 7 6.46875 7.125 6.46875 7.25V8.03125C6.84375 8.03125 7.1875 8.15625 7.46875 8.375C7.59375 8.46875 7.59375 8.65625 7.46875 8.75L7.125 9.09375C7.03125 9.1875 6.90625 9.1875 6.8125 9.125C6.6875 9.0625 6.53125 9 6.40625 9H5.53125C5.3125 9 5.15625 9.1875 5.15625 9.4375C5.15625 9.625 5.25 9.78125 5.4375 9.8125L6.84375 10.25C7.40625 10.4062 7.8125 10.9688 7.8125 11.5938C7.8125 12.375 7.21875 13 6.5 13Z" fill="#363A60"/>
</svg>
