<svg width="17" height="17" viewBox="0 0 17 17" fill="none" xmlns="http://www.w3.org/2000/svg">
<path d="M0.375 4.65625L7.65625 7.9375C7.875 8.03125 8.09375 8.03125 8.3125 7.9375L15.5938 4.65625C16.125 4.40625 16.125 3.625 15.5938 3.375L8.3125 0.09375C8.21875 0.03125 8.09375 0.03125 8 0.03125C7.875 0.03125 7.75 0.03125 7.65625 0.09375L0.375 3.375C-0.15625 3.625 -0.15625 4.40625 0.375 4.65625ZM15.5938 7.40625L13.7812 6.5625L8.71875 8.875C8.5 8.96875 8.25 9.03125 8 9.03125C7.71875 9.03125 7.46875 8.96875 7.25 8.875L2.1875 6.5625L0.375 7.40625C-0.15625 7.625 -0.15625 8.40625 0.375 8.65625L7.65625 11.9375C7.875 12.0312 8.09375 12.0312 8.3125 11.9375L15.5938 8.65625C16.125 8.40625 16.125 7.625 15.5938 7.40625ZM15.5938 11.4062L13.7812 10.5625L8.71875 12.875C8.5 12.9688 8.25 13.0312 8 13.0312C7.71875 13.0312 7.46875 12.9688 7.25 12.875L2.1875 10.5625L0.375 11.4062C-0.15625 11.625 -0.15625 12.4062 0.375 12.6562L7.65625 15.9375C7.875 16.0312 8.09375 16.0312 8.3125 15.9375L15.5938 12.6562C16.125 12.4062 16.125 11.625 15.5938 11.4062Z" fill="#363A60"/>
</svg>
