<svg width="21" height="17" viewBox="0 0 21 17" fill="none" xmlns="http://www.w3.org/2000/svg">
<path d="M7 8C9.1875 8 11 6.21875 11 4C11 1.8125 9.1875 0 7 0C4.78125 0 3 1.8125 3 4C3 6.21875 4.78125 8 7 8ZM9.78125 9H9.25C8.5625 9.34375 7.8125 9.5 7 9.5C6.1875 9.5 5.40625 9.34375 4.71875 9H4.1875C1.875 9 0 10.9062 0 13.2188V14.5C0 15.3438 0.65625 16 1.5 16H10.0625C10 15.8125 9.96875 15.5625 10 15.3438L10.2188 13.4375L10.25 13.0938L10.5 12.8438L12.9062 10.4375C12.1562 9.5625 11.0312 9 9.78125 9ZM11.1875 13.5625L11 15.4688C10.9688 15.7812 11.2188 16.0625 11.5312 16L13.4375 15.8125L17.75 11.5L15.5 9.25L11.1875 13.5625ZM19.7812 8.40625L18.5938 7.21875C18.2812 6.9375 17.8125 6.9375 17.5312 7.21875L16.3438 8.40625L16.2188 8.53125L18.4688 10.7812L19.7812 9.46875C20.0625 9.1875 20.0625 8.71875 19.7812 8.40625Z" fill="#363A60"/>
</svg>
