<svg width="14" height="16" viewBox="0 0 14 16" fill="none" xmlns="http://www.w3.org/2000/svg">
<path d="M12.5 0H1.5C0.6875 0 0 0.71875 0 1.5V14.5C0 15.3125 0.6875 16 1.5 16H12.5C13.2812 16 14 15.3125 14 14.5V1.5C14 0.71875 13.2812 0 12.5 0ZM4 13.625C4 13.8125 3.78125 14 3.59375 14H2.375C2.1875 14 2 13.8125 2 13.625V12.4062C2 12.2188 2.1875 12 2.375 12H3.59375C3.78125 12 4 12.2188 4 12.4062V13.625ZM4 9.625C4 9.8125 3.78125 10 3.59375 10H2.375C2.1875 10 2 9.8125 2 9.625V8.40625C2 8.21875 2.1875 8 2.375 8H3.59375C3.78125 8 4 8.21875 4 8.40625V9.625ZM8 13.625C8 13.8125 7.78125 14 7.59375 14H6.375C6.1875 14 6 13.8125 6 13.625V12.4062C6 12.2188 6.1875 12 6.375 12H7.59375C7.78125 12 8 12.2188 8 12.4062V13.625ZM8 9.625C8 9.8125 7.78125 10 7.59375 10H6.375C6.1875 10 6 9.8125 6 9.625V8.40625C6 8.21875 6.1875 8 6.375 8H7.59375C7.78125 8 8 8.21875 8 8.40625V9.625ZM12 13.625C12 13.8125 11.7812 14 11.5938 14H10.375C10.1875 14 10 13.8125 10 13.625V8.40625C10 8.21875 10.1875 8 10.375 8H11.5938C11.7812 8 12 8.21875 12 8.40625V13.625ZM12 5.625C12 5.8125 11.7812 6 11.5938 6H2.375C2.1875 6 2 5.8125 2 5.625V2.40625C2 2.21875 2.1875 2 2.375 2H11.5938C11.7812 2 12 2.21875 12 2.40625V5.625Z" fill="#363A60"/>
</svg>
