<svg width="14" height="14" viewBox="0 0 14 14" fill="none" xmlns="http://www.w3.org/2000/svg">
<path d="M12.5 0H1.5C0.65625 0 0 0.6875 0 1.5V12.5C0 13.3438 0.65625 14 1.5 14H12.5C13.3125 14 14 13.3438 14 12.5V1.5C14 0.6875 13.3125 0 12.5 0ZM5 10.5C5 10.7812 4.75 11 4.5 11H3.5C3.21875 11 3 10.7812 3 10.5V6.5C3 6.25 3.21875 6 3.5 6H4.5C4.75 6 5 6.25 5 6.5V10.5ZM8 10.5C8 10.7812 7.75 11 7.5 11H6.5C6.21875 11 6 10.7812 6 10.5V3.5C6 3.25 6.21875 3 6.5 3H7.5C7.75 3 8 3.25 8 3.5V10.5ZM11 10.5C11 10.7812 10.75 11 10.5 11H9.5C9.21875 11 9 10.7812 9 10.5V8.5C9 8.25 9.21875 8 9.5 8H10.5C10.75 8 11 8.25 11 8.5V10.5Z" fill="#363A60"/>
</svg>
